<?xml version="1.0" encoding="UTF-8"?>
<svg width="47px" height="25px" viewBox="0 0 47 25" version="1.1" xmlns="http://www.w3.org/2000/svg" xmlns:xlink="http://www.w3.org/1999/xlink">
    <!-- Generator: Sketch 63.1 (92452) - https://sketch.com -->
    <title>Group 6</title>
    <desc>Created with Sketch.</desc>
    <g id="Symbols" stroke="none" stroke-width="1" fill="none" fill-rule="evenodd">
        <g id="Navigation/Footer-Widescreen" transform="translate(-1483.000000, -485.000000)">
            <g id="Group-21" transform="translate(1301.000000, 485.000000)">
                <g id="Group-6" transform="translate(182.000000, 0.000000)">
                    <rect id="Rectangle" stroke="#71767F" opacity="0.311802455" x="0.5" y="0.5" width="46" height="24" rx="4"></rect>
                    <g id="american-express" transform="translate(8.000000, 7.000000)" fill-rule="nonzero">
                        <polygon id="Path" fill="#2FABF7" points="2.65714286 2.68174603 3.73968254 2.68174603 3.1984127 1.30396825"></polygon>
                        <path d="M16.0904762,1.50079365 C15.9920635,1.4515873 15.8444444,1.4515873 15.6968254,1.4515873 L14.7126984,1.4515873 L14.7126984,2.23888889 L15.6968254,2.23888889 C15.8444444,2.23888889 15.9920635,2.23888889 16.0904762,2.18968254 C16.1888889,2.14047619 16.2380952,1.99285714 16.2380952,1.8452381 C16.2873016,1.6484127 16.1888889,1.55 16.0904762,1.50079365 Z" id="Path" fill="#228FE0"></path>
                        <path d="M26.6206349,0.0246031746 L26.6206349,0.615079365 L26.3253968,0.0246031746 L24.0126984,0.0246031746 L24.0126984,0.615079365 L23.7174603,0.0246031746 L20.568254,0.0246031746 C20.0269841,0.0246031746 19.584127,0.123015873 19.1904762,0.31984127 L19.1904762,0.0246031746 L16.9761905,0.0246031746 L16.9761905,0.31984127 C16.7301587,0.123015873 16.4349206,0.0246031746 16.0412698,0.0246031746 L8.11904762,0.0246031746 L7.57777778,1.2547619 L7.03650794,0.0246031746 L4.52698413,0.0246031746 L4.52698413,0.615079365 L4.23174603,0.0246031746 L2.11587302,0.0246031746 L1.13174603,2.33730159 L0,4.89603175 L1.13174603,4.89603175 L2.50952381,4.89603175 L2.8047619,4.10873016 L3.49365079,4.10873016 L3.78888889,4.89603175 L6.64285714,4.89603175 L6.64285714,4.30555556 L6.88888889,4.89603175 L8.31587302,4.89603175 L8.56190476,4.30555556 L8.56190476,4.89603175 L15.4015873,4.89603175 L15.4015873,3.61666667 L15.5,3.61666667 C15.5984127,3.61666667 15.5984127,3.61666667 15.5984127,3.76428571 L15.5984127,4.8468254 L19.1412698,4.8468254 L19.1412698,4.5515873 C19.4365079,4.69920635 19.8793651,4.8468254 20.4698413,4.8468254 L21.9460317,4.8468254 L22.2412698,4.05952381 L22.9301587,4.05952381 L23.2253968,4.8468254 L26.0793651,4.8468254 L26.0793651,4.10873016 L26.5222222,4.8468254 L28.8349206,4.8468254 L28.8349206,0.0246031746 L26.6206349,0.0246031746 L26.6206349,0.0246031746 Z M9.98888889,4.15793651 L9.15238095,4.15793651 L9.15238095,1.4515873 L7.97142857,4.15793651 L7.23333333,4.15793651 L6.05238095,1.4515873 L6.05238095,4.15793651 L4.37936508,4.15793651 L4.03492063,3.41984127 L2.36190476,3.41984127 L2.06666667,4.20714286 L1.13174603,4.20714286 L2.60793651,0.713492063 L3.83809524,0.713492063 L5.21587302,4.01031746 L5.21587302,0.713492063 L6.54444444,0.713492063 L7.62698413,3.07539683 L8.61111111,0.713492063 L9.98888889,0.713492063 L9.98888889,4.15793651 Z M13.3349206,1.4515873 L11.415873,1.4515873 L11.415873,2.09126984 L13.2857143,2.09126984 L13.2857143,2.78015873 L11.415873,2.78015873 L11.415873,3.46904762 L13.3349206,3.46904762 L13.3349206,4.20714286 L10.5793651,4.20714286 L10.5793651,0.713492063 L13.3349206,0.713492063 L13.3349206,1.4515873 Z M17.0253968,2.87857143 C17.1238095,3.07539683 17.1730159,3.22301587 17.1730159,3.51825397 L17.1730159,4.20714286 L16.3365079,4.20714286 L16.3365079,3.76428571 C16.3365079,3.56746032 16.3365079,3.27222222 16.1888889,3.07539683 C16.0412698,2.92777778 15.8936508,2.92777778 15.5984127,2.92777778 L14.7126984,2.92777778 L14.7126984,4.20714286 L13.8761905,4.20714286 L13.8761905,0.713492063 L15.7460317,0.713492063 C16.1888889,0.713492063 16.484127,0.713492063 16.7301587,0.861111111 C16.9761905,1.00873016 17.1238095,1.2547619 17.1238095,1.6484127 C17.1238095,2.18968254 16.7793651,2.48492063 16.5333333,2.58333333 C16.7793651,2.63253968 16.9269841,2.78015873 17.0253968,2.87857143 Z M18.5015873,4.15793651 L17.6650794,4.15793651 L17.6650794,0.664285714 L18.5015873,0.664285714 L18.5015873,4.15793651 Z M28.1952381,4.15793651 L27.0142857,4.15793651 L25.4396825,1.55 L25.4396825,4.15793651 L23.7666667,4.15793651 L23.4714286,3.41984127 L21.7492063,3.41984127 L21.4539683,4.20714286 L20.5190476,4.20714286 C20.1253968,4.20714286 19.6333333,4.10873016 19.3380952,3.81349206 C19.0428571,3.51825397 18.8952381,3.12460317 18.8952381,2.48492063 C18.8952381,1.99285714 18.9936508,1.50079365 19.3380952,1.10714286 C19.584127,0.811904762 20.0269841,0.713492063 20.568254,0.713492063 L21.3555556,0.713492063 L21.3555556,1.4515873 L20.568254,1.4515873 C20.2730159,1.4515873 20.1253968,1.50079365 19.9285714,1.6484127 C19.7809524,1.79603175 19.6825397,2.09126984 19.6825397,2.43571429 C19.6825397,2.82936508 19.731746,3.07539683 19.9285714,3.27222222 C20.0761905,3.41984127 20.2730159,3.46904762 20.5190476,3.46904762 L20.8634921,3.46904762 L21.9952381,0.762698413 L23.2253968,0.762698413 L24.6031746,4.05952381 L24.6031746,0.762698413 L25.8333333,0.762698413 L27.2603175,3.17380952 L27.2603175,0.762698413 L28.0968254,0.762698413 L28.0968254,4.15793651 L28.1952381,4.15793651 L28.1952381,4.15793651 Z" id="Shape" fill="#0571C1"></path>
                        <g id="Group" transform="translate(12.363095, 1.291667)" fill="#228FE0">
                            <polygon id="Path" points="9.68134921 1.39007937 10.8130952 1.39007937 10.2718254 0.0123015873"></polygon>
                            <polygon id="Path" points="1.31626984 8.47579365 1.31626984 5.67103175 0.0369047619 7.04880952"></polygon>
                        </g>
                        <polygon id="Path" fill="#2FABF7" points="8.41428571 7.30714286 8.41428571 7.9468254 10.2349206 7.9468254 10.2349206 8.63571429 8.41428571 8.63571429 8.41428571 9.37380952 10.431746 9.37380952 11.3666667 8.34047619 10.4809524 7.30714286"></polygon>
                        <path d="M15.5492063,7.30714286 L14.515873,7.30714286 L14.515873,8.19285714 L15.5984127,8.19285714 C15.8936508,8.19285714 16.0904762,8.0452381 16.0904762,7.75 C16.0412698,7.4547619 15.8444444,7.30714286 15.5492063,7.30714286 Z" id="SVGCleanerId_0" fill="#228FE0"></path>
                        <path d="M30.7539683,8.14365079 L30.7539683,5.92936508 L30.1634921,5.92936508 L28.6873016,5.92936508 C28.2444444,5.92936508 27.9,6.02777778 27.6539683,6.22460317 L27.6539683,5.92936508 L25.3904762,5.92936508 C25.0460317,5.92936508 24.6031746,6.02777778 24.4063492,6.22460317 L24.4063492,5.92936508 L20.4206349,5.92936508 L20.4206349,6.22460317 C20.1253968,5.97857143 19.584127,5.92936508 19.3380952,5.92936508 L16.6809524,5.92936508 L16.6809524,6.22460317 C16.4349206,5.97857143 15.8444444,5.92936508 15.5492063,5.92936508 L12.5968254,5.92936508 L11.9079365,6.66746032 L11.268254,5.92936508 L6.83968254,5.92936508 L6.83968254,10.7515873 L11.1698413,10.7515873 L11.8587302,10.0134921 L12.4984127,10.7515873 L15.1555556,10.7515873 L15.1555556,9.61984127 L15.5,9.61984127 C15.8444444,9.61984127 16.2873016,9.61984127 16.631746,9.47222222 L16.631746,10.8007937 L18.8460317,10.8007937 L18.8460317,9.52142857 L18.9444444,9.52142857 C19.0920635,9.52142857 19.0920635,9.52142857 19.0920635,9.66904762 L19.0920635,10.8007937 L25.784127,10.8007937 C26.2269841,10.8007937 26.6698413,10.702381 26.915873,10.5055556 L26.915873,10.8007937 L29.031746,10.8007937 C29.4746032,10.8007937 29.9174603,10.7515873 30.2126984,10.5547619 L30.2126984,10.5547619 C30.7047619,10.2595238 31,9.71825397 31,9.07857143 C31,8.73412698 30.9015873,8.38968254 30.7539683,8.14365079 Z M15.5,8.93095238 L14.515873,8.93095238 L14.515873,10.1119048 L12.9412698,10.1119048 L11.9571429,8.98015873 L10.9238095,10.1119048 L7.67619048,10.1119048 L7.67619048,6.61825397 L10.9730159,6.61825397 L11.9571429,7.75 L12.9904762,6.61825397 L15.5984127,6.61825397 C16.2380952,6.61825397 16.9761905,6.81507937 16.9761905,7.75 C16.9269841,8.73412698 16.2380952,8.93095238 15.5,8.93095238 Z M20.4206349,8.73412698 C20.5190476,8.88174603 20.568254,9.07857143 20.568254,9.37380952 L20.568254,10.0626984 L19.731746,10.0626984 L19.731746,9.61984127 C19.731746,9.42301587 19.731746,9.07857143 19.584127,8.93095238 C19.4857143,8.78333333 19.2888889,8.78333333 18.9936508,8.78333333 L18.1079365,8.78333333 L18.1079365,10.0626984 L17.2714286,10.0626984 L17.2714286,6.56904762 L19.1412698,6.56904762 C19.5349206,6.56904762 19.8793651,6.56904762 20.1253968,6.71666667 C20.3714286,6.86428571 20.568254,7.11031746 20.568254,7.50396825 C20.568254,8.0452381 20.2238095,8.34047619 19.9777778,8.43888889 C20.2238095,8.53730159 20.3714286,8.63571429 20.4206349,8.73412698 Z M23.815873,7.30714286 L21.8968254,7.30714286 L21.8968254,7.9468254 L23.7666667,7.9468254 L23.7666667,8.63571429 L21.8968254,8.63571429 L21.8968254,9.32460317 L23.815873,9.32460317 L23.815873,10.0626984 L21.0603175,10.0626984 L21.0603175,6.56904762 L23.815873,6.56904762 L23.815873,7.30714286 Z M25.8825397,10.0626984 L24.3079365,10.0626984 L24.3079365,9.32460317 L25.8825397,9.32460317 C26.0301587,9.32460317 26.1285714,9.32460317 26.2269841,9.22619048 C26.2761905,9.17698413 26.3253968,9.07857143 26.3253968,8.98015873 C26.3253968,8.88174603 26.2761905,8.78333333 26.2269841,8.73412698 C26.1777778,8.68492063 26.0793651,8.63571429 25.931746,8.63571429 C25.1444444,8.58650794 24.2095238,8.63571429 24.2095238,7.5531746 C24.2095238,7.06111111 24.5047619,6.51984127 25.3904762,6.51984127 L27.0142857,6.51984127 L27.0142857,7.35634921 L25.4888889,7.35634921 C25.3412698,7.35634921 25.2428571,7.35634921 25.1444444,7.40555556 C25.0460317,7.4547619 25.0460317,7.5531746 25.0460317,7.6515873 C25.0460317,7.79920635 25.1444444,7.8484127 25.2428571,7.89761905 C25.3412698,7.9468254 25.4396825,7.9468254 25.5380952,7.9468254 L25.9809524,7.9468254 C26.4238095,7.9468254 26.7190476,8.0452381 26.915873,8.24206349 C27.0634921,8.38968254 27.1619048,8.63571429 27.1619048,8.98015873 C27.1619048,9.71825397 26.7190476,10.0626984 25.8825397,10.0626984 Z M30.1142857,9.71825397 C29.9174603,9.91507937 29.5730159,10.0626984 29.0809524,10.0626984 L27.5063492,10.0626984 L27.5063492,9.32460317 L29.0809524,9.32460317 C29.2285714,9.32460317 29.3269841,9.32460317 29.4253968,9.22619048 C29.4746032,9.17698413 29.5238095,9.07857143 29.5238095,8.98015873 C29.5238095,8.88174603 29.4746032,8.78333333 29.4253968,8.73412698 C29.3761905,8.68492063 29.2777778,8.63571429 29.1301587,8.63571429 C28.3428571,8.58650794 27.4079365,8.63571429 27.4079365,7.5531746 C27.4079365,7.06111111 27.7031746,6.51984127 28.5888889,6.51984127 L30.2126984,6.51984127 L30.2126984,7.35634921 L28.7365079,7.35634921 C28.5888889,7.35634921 28.4904762,7.35634921 28.3920635,7.40555556 C28.2936508,7.4547619 28.2936508,7.5531746 28.2936508,7.6515873 C28.2936508,7.79920635 28.3428571,7.8484127 28.4904762,7.89761905 C28.5888889,7.9468254 28.6873016,7.9468254 28.7857143,7.9468254 L29.2285714,7.9468254 C29.6714286,7.9468254 29.9666667,8.0452381 30.1634921,8.24206349 C30.2126984,8.24206349 30.2126984,8.29126984 30.2126984,8.29126984 C30.3603175,8.48809524 30.4095238,8.73412698 30.4095238,8.98015873 C30.4095238,9.27539683 30.3111111,9.52142857 30.1142857,9.71825397 Z" id="Shape" fill="#0571C1"></path>
                        <path d="M19.5349206,7.40555556 C19.4365079,7.35634921 19.2888889,7.35634921 19.1412698,7.35634921 L18.1571429,7.35634921 L18.1571429,8.14365079 L19.1412698,8.14365079 C19.2888889,8.14365079 19.4365079,8.14365079 19.5349206,8.09444444 C19.6333333,8.0452381 19.6825397,7.89761905 19.6825397,7.75 C19.731746,7.5531746 19.6333333,7.4547619 19.5349206,7.40555556 Z" id="SVGCleanerId_1" fill="#228FE0"></path>
                        <g id="Group" transform="translate(12.363095, 1.291667)" fill="#228FE0">
                            <path d="M3.72738095,0.209126984 C3.62896825,0.159920635 3.48134921,0.159920635 3.33373016,0.159920635 L2.34960317,0.159920635 L2.34960317,0.947222222 L3.33373016,0.947222222 C3.48134921,0.947222222 3.62896825,0.947222222 3.72738095,0.898015873 C3.82579365,0.848809524 3.875,0.701190476 3.875,0.553571429 C3.92420635,0.356746032 3.82579365,0.258333333 3.72738095,0.209126984 Z" id="Path"></path>
                            <polygon id="Path" points="9.68134921 1.39007937 10.8130952 1.39007937 10.2718254 0.0123015873"></polygon>
                            <polygon id="Path" points="1.31626984 8.47579365 1.31626984 5.67103175 0.0369047619 7.04880952"></polygon>
                        </g>
                        <path d="M15.5492063,7.30714286 L14.515873,7.30714286 L14.515873,8.19285714 L15.5984127,8.19285714 C15.8936508,8.19285714 16.0904762,8.0452381 16.0904762,7.75 C16.0412698,7.4547619 15.8444444,7.30714286 15.5492063,7.30714286 Z" id="SVGCleanerId_0_1_" fill="#228FE0"></path>
                        <path d="M19.5349206,7.40555556 C19.4365079,7.35634921 19.2888889,7.35634921 19.1412698,7.35634921 L18.1571429,7.35634921 L18.1571429,8.14365079 L19.1412698,8.14365079 C19.2888889,8.14365079 19.4365079,8.14365079 19.5349206,8.09444444 C19.6333333,8.0452381 19.6825397,7.89761905 19.6825397,7.75 C19.731746,7.5531746 19.6333333,7.4547619 19.5349206,7.40555556 Z" id="SVGCleanerId_1_1_" fill="#228FE0"></path>
                        <g id="Group" fill="#2FABF7">
                            <polygon id="Path" points="15.2047619 9.96428571 14.515873 9.22619048 14.515873 10.0626984 12.8920635 10.0626984 11.9079365 8.93095238 10.8253968 10.0626984 7.57777778 10.0626984 7.57777778 6.61825397 10.8746032 6.61825397 11.9079365 7.75 12.4 7.15952381 11.1698413 5.92936508 6.83968254 5.92936508 6.83968254 10.7515873 11.1698413 10.7515873 11.9079365 10.0134921 12.547619 10.7515873 15.2047619 10.7515873"></polygon>
                            <polygon id="Path" points="10.0873016 4.8468254 9.44761905 4.15793651 9.15238095 4.15793651 9.15238095 3.86269841 8.41428571 3.12460317 7.92222222 4.15793651 7.23333333 4.15793651 6.05238095 1.4515873 6.05238095 4.15793651 4.37936508 4.15793651 4.03492063 3.41984127 2.36190476 3.41984127 2.01746032 4.15793651 1.13174603 4.15793651 2.60793651 0.713492063 3.83809524 0.713492063 5.21587302 4.01031746 5.21587302 0.713492063 5.95396825 0.713492063 5.26507937 0.0246031746 4.52698413 0.0246031746 4.52698413 0.615079365 4.28095238 0.0246031746 2.11587302 0.0246031746 1.13174603 2.33730159 0 4.8468254 1.13174603 4.8468254 2.55873016 4.8468254 2.85396825 4.10873016 3.54285714 4.10873016 3.88730159 4.8468254 6.64285714 4.8468254 6.64285714 4.25634921 6.88888889 4.8468254 8.31587302 4.8468254 8.56190476 4.25634921 8.56190476 4.8468254"></polygon>
                            <polygon id="Path" points="7.82380952 2.58333333 7.03650794 1.79603175 7.62698413 3.07539683"></polygon>
                        </g>
                        <g id="Group" transform="translate(4.859127, 0.061508)" fill="#228FE0">
                            <path d="M25.3535714,10.4440476 C25.7964286,10.1488095 26.0916667,9.65674603 26.140873,9.11547619 L25.4519841,8.4265873 C25.5011905,8.57420635 25.5503968,8.7218254 25.5503968,8.91865079 C25.5503968,9.21388889 25.4519841,9.45992063 25.2551587,9.65674603 C25.0583333,9.85357143 24.7138889,10.0011905 24.2218254,10.0011905 L22.6472222,10.0011905 L22.6472222,9.26309524 L24.2218254,9.26309524 C24.3694444,9.26309524 24.4678571,9.26309524 24.5662698,9.16468254 C24.6154762,9.11547619 24.6646825,9.01706349 24.6646825,8.91865079 C24.6646825,8.8202381 24.6154762,8.7218254 24.5662698,8.67261905 C24.5170635,8.6234127 24.4186508,8.57420635 24.2710317,8.57420635 C23.4837302,8.525 22.5488095,8.57420635 22.5488095,7.49166667 C22.5488095,6.99960317 22.8440476,6.55674603 23.5821429,6.45833333 L23.040873,5.91706349 C22.9424603,5.96626984 22.893254,6.01547619 22.8440476,6.01547619 L22.8440476,5.7202381 L20.5805556,5.7202381 C20.2361111,5.7202381 19.793254,5.81865079 19.5964286,6.01547619 L19.5964286,5.7202381 L15.5615079,5.7202381 L15.5615079,6.01547619 C15.2662698,5.76944444 14.725,5.7202381 14.4789683,5.7202381 L11.8218254,5.7202381 L11.8218254,6.01547619 C11.5757937,5.76944444 10.9853175,5.7202381 10.6900794,5.7202381 L7.73769841,5.7202381 L7.04880952,6.45833333 L6.40912698,5.7202381 L5.86785714,5.7202381 L7.34404762,7.19642857 L8.08214286,6.40912698 L10.6900794,6.40912698 C11.3297619,6.40912698 12.0678571,6.60595238 12.0678571,7.54087302 C12.0678571,8.525 11.3789683,8.7218254 10.640873,8.7218254 L9.65674603,8.7218254 L9.65674603,9.45992063 L10.3948413,10.1980159 L10.3948413,9.45992063 L10.640873,9.45992063 C10.9853175,9.45992063 11.4281746,9.45992063 11.772619,9.31230159 L11.772619,10.640873 L13.9869048,10.640873 L13.9869048,9.36150794 L14.0853175,9.36150794 C14.2329365,9.36150794 14.2329365,9.36150794 14.2329365,9.50912698 L14.2329365,10.640873 L20.925,10.640873 C21.3678571,10.640873 21.8107143,10.5424603 22.056746,10.3456349 L22.056746,10.640873 L24.172619,10.640873 C24.5662698,10.6900794 25.009127,10.640873 25.3535714,10.4440476 L25.3535714,10.4440476 Z M15.5615079,8.67261905 C15.6599206,8.8202381 15.709127,9.01706349 15.709127,9.31230159 L15.709127,10.0011905 L14.872619,10.0011905 L14.872619,9.55833333 C14.872619,9.36150794 14.872619,9.01706349 14.725,8.86944444 C14.6265873,8.7218254 14.4297619,8.7218254 14.1345238,8.7218254 L13.2488095,8.7218254 L13.2488095,10.0011905 L12.4123016,10.0011905 L12.4123016,6.50753968 L14.2821429,6.50753968 C14.6757937,6.50753968 15.0202381,6.50753968 15.2662698,6.65515873 C15.5123016,6.80277778 15.709127,7.04880952 15.709127,7.44246032 C15.709127,7.98373016 15.3646825,8.27896825 15.1186508,8.37738095 C15.3646825,8.47579365 15.5123016,8.57420635 15.5615079,8.67261905 Z M18.956746,7.24563492 L17.0376984,7.24563492 L17.0376984,7.88531746 L18.9075397,7.88531746 L18.9075397,8.57420635 L17.0376984,8.57420635 L17.0376984,9.26309524 L18.956746,9.26309524 L18.956746,10.0011905 L16.2011905,10.0011905 L16.2011905,6.50753968 L18.956746,6.50753968 L18.956746,7.24563492 Z M21.0234127,10.0011905 L19.4488095,10.0011905 L19.4488095,9.26309524 L21.0234127,9.26309524 C21.1710317,9.26309524 21.2694444,9.26309524 21.3678571,9.16468254 C21.4170635,9.11547619 21.4662698,9.01706349 21.4662698,8.91865079 C21.4662698,8.8202381 21.4170635,8.7218254 21.3678571,8.67261905 C21.3186508,8.6234127 21.2202381,8.57420635 21.072619,8.57420635 C20.2853175,8.525 19.3503968,8.57420635 19.3503968,7.49166667 C19.3503968,6.99960317 19.6456349,6.45833333 20.5313492,6.45833333 L22.1551587,6.45833333 L22.1551587,7.29484127 L20.6297619,7.29484127 C20.4821429,7.29484127 20.3837302,7.29484127 20.2853175,7.34404762 C20.1869048,7.39325397 20.1869048,7.49166667 20.1869048,7.59007937 C20.1869048,7.73769841 20.2853175,7.78690476 20.3837302,7.83611111 C20.4821429,7.88531746 20.5805556,7.88531746 20.6789683,7.88531746 L21.1218254,7.88531746 C21.5646825,7.88531746 21.8599206,7.98373016 22.056746,8.18055556 C22.2043651,8.3281746 22.3027778,8.57420635 22.3027778,8.91865079 C22.3027778,9.65674603 21.8599206,10.0011905 21.0234127,10.0011905 Z" id="Shape"></path>
                            <path d="M23.3853175,7.59007937 C23.3853175,7.73769841 23.4345238,7.78690476 23.5821429,7.83611111 C23.6805556,7.88531746 23.7789683,7.88531746 23.877381,7.88531746 L24.3202381,7.88531746 C24.6154762,7.88531746 24.8123016,7.93452381 25.009127,8.03293651 L24.2710317,7.29484127 L23.8281746,7.29484127 C23.6805556,7.29484127 23.5821429,7.29484127 23.4837302,7.34404762 C23.4345238,7.39325397 23.3853175,7.49166667 23.3853175,7.59007937 Z" id="Path"></path>
                            <polygon id="Path" points="21.6630952 4.63769841 21.7615079 4.78531746 21.8107143 4.78531746"></polygon>
                            <polygon id="Path" points="18.956746 1.93134921 19.793254 3.94880952 19.793254 2.76785714"></polygon>
                            <path d="M10.5424603,3.55515873 L10.640873,3.55515873 C10.7392857,3.55515873 10.7392857,3.55515873 10.7392857,3.70277778 L10.7392857,4.78531746 L14.2821429,4.78531746 L14.2821429,4.49007937 C14.577381,4.63769841 15.0202381,4.78531746 15.6107143,4.78531746 L17.0869048,4.78531746 L17.3821429,3.99801587 L18.0710317,3.99801587 L18.3662698,4.78531746 L21.2202381,4.78531746 L21.2202381,4.29325397 L20.5313492,3.60436508 L20.5313492,4.14563492 L18.8583333,4.14563492 L18.6123016,3.35833333 L16.8900794,3.35833333 L16.5948413,4.14563492 L15.6599206,4.14563492 C15.2662698,4.14563492 14.7742063,4.04722222 14.4789683,3.75198413 C14.1837302,3.45674603 14.0361111,3.06309524 14.0361111,2.4234127 C14.0361111,1.93134921 14.1345238,1.43928571 14.4789683,1.04563492 C14.725,0.750396825 15.1678571,0.651984127 15.709127,0.651984127 L16.4964286,0.651984127 L16.4964286,1.39007937 L15.709127,1.39007937 C15.4138889,1.39007937 15.2662698,1.43928571 15.0694444,1.58690476 C14.9218254,1.73452381 14.8234127,2.0297619 14.8234127,2.37420635 C14.8234127,2.76785714 14.872619,3.01388889 15.0694444,3.21071429 C15.2170635,3.35833333 15.4138889,3.40753968 15.6599206,3.40753968 L16.0043651,3.40753968 L17.1361111,0.701190476 L17.6281746,0.701190476 L16.9392857,0.0123015873 L15.6599206,0.0123015873 C15.1186508,0.0123015873 14.6757937,0.110714286 14.2821429,0.307539683 L14.2821429,0.0123015873 L12.1170635,0.0123015873 L12.1170635,0.307539683 C11.8710317,0.110714286 11.5757937,0.0123015873 11.1821429,0.0123015873 L3.25992063,0.0123015873 L2.71865079,1.24246032 L2.17738095,0.0123015873 L0.0123015873,0.0123015873 L0.701190476,0.701190476 L1.68531746,0.701190476 L2.5218254,2.5218254 L2.81706349,2.81706349 L3.70277778,0.651984127 L5.08055556,0.651984127 L5.08055556,4.14563492 L4.24404762,4.14563492 L4.24404762,1.43928571 L3.40753968,3.40753968 L4.83452381,4.83452381 L10.493254,4.83452381 L10.5424603,3.55515873 Z M12.8059524,0.651984127 L13.6424603,0.651984127 L13.6424603,4.14563492 L12.8059524,4.14563492 L12.8059524,0.651984127 Z M8.47579365,1.39007937 L6.55674603,1.39007937 L6.55674603,2.0297619 L8.4265873,2.0297619 L8.4265873,2.71865079 L6.55674603,2.71865079 L6.55674603,3.40753968 L8.47579365,3.40753968 L8.47579365,4.14563492 L5.7202381,4.14563492 L5.7202381,0.651984127 L8.47579365,0.651984127 L8.47579365,1.39007937 Z M9.85357143,4.09642857 L9.01706349,4.09642857 L9.01706349,0.602777778 L10.8869048,0.602777778 C11.3297619,0.602777778 11.625,0.602777778 11.8710317,0.750396825 C12.1170635,0.898015873 12.2646825,1.14404762 12.2646825,1.53769841 C12.2646825,2.07896825 11.9202381,2.37420635 11.6742063,2.47261905 C11.8710317,2.5218254 12.0186508,2.66944444 12.0678571,2.76785714 C12.1662698,2.96468254 12.2154762,3.11230159 12.2154762,3.40753968 L12.2154762,4.09642857 L11.3789683,4.09642857 L11.3789683,3.65357143 C11.3789683,3.45674603 11.3789683,3.16150794 11.2313492,2.96468254 C11.1821429,2.86626984 11.0345238,2.86626984 10.7392857,2.86626984 L9.85357143,2.86626984 L9.85357143,4.09642857 L9.85357143,4.09642857 Z" id="Shape"></path>
                        </g>
                    </g>
                </g>
            </g>
        </g>
    </g>
</svg>