<?xml version="1.0" encoding="UTF-8"?>
<svg width="42px" height="42px" viewBox="0 0 42 42" version="1.1" xmlns="http://www.w3.org/2000/svg" xmlns:xlink="http://www.w3.org/1999/xlink">
    <!-- Generator: Sketch 63.1 (92452) - https://sketch.com -->
    <title>Group 8</title>
    <desc>Created with Sketch.</desc>
    <g id="Symbols" stroke="none" stroke-width="1" fill="none" fill-rule="evenodd">
        <g id="Navigation/Footer-Widescreen" transform="translate(-266.000000, -384.000000)">
            <g id="Group-8" transform="translate(266.000000, 384.000000)">
                <circle id="Oval" fill="#FFE7E7" cx="21" cy="21" r="21"></circle>
                <path d="M26.041,11.123 L26.041,14.117 C26.041,14.185 25.9905771,14.238 25.932951,14.238 L24.3896511,14.238 C23.1380836,14.238 22.8814672,14.896 22.8814672,15.884 L22.8814672,18.05 L25.8240016,18.05 C25.8546155,18.05 25.8825281,18.064 25.8996359,18.086 C25.9230465,18.108 25.932951,18.139 25.932951,18.17 L25.932951,21.394 C25.932951,21.458 25.8852294,21.514 25.8240016,21.514 L22.8814672,21.514 L22.8814672,29.928 C22.8814672,29.992 22.8328451,30.046 22.7725178,30.046 L19.7687556,30.046 C19.7111295,30.046 19.6634078,29.992 19.6634078,29.928 L19.6634078,21.514 L17.1089494,21.514 C17.0477216,21.514 17,21.458 17,21.394 L17,18.17 C17,18.103 17.0477216,18.05 17.1089494,18.05 L19.6634078,18.05 L19.6634078,15.546 C19.6634078,12.784 21.2238155,11 23.6423122,11 L25.932951,11.006 C25.9905771,11.006 26.041,11.059 26.041,11.123" id="Fill-1" fill="#0B0B23"></path>
            </g>
        </g>
    </g>
</svg>