<?xml version="1.0" encoding="UTF-8"?>
<svg width="57px" height="58px" viewBox="0 0 57 58" version="1.1" xmlns="http://www.w3.org/2000/svg" xmlns:xlink="http://www.w3.org/1999/xlink">
    <!-- Generator: Sketch 63.1 (92452) - https://sketch.com -->
    <title>Group 20</title>
    <desc>Created with Sketch.</desc>
    <defs>
        <polygon id="path-1" points="0 0.0460525377 19.1907871 0.0460525377 19.1907871 15.9999625 0 15.9999625"></polygon>
    </defs>
    <g id="Design_Desktop" stroke="none" stroke-width="1" fill="none" fill-rule="evenodd">
        <g id="Hell-Bunny_Home" transform="translate(-540.000000, -2638.000000)">
            <g id="Group-32" transform="translate(507.000000, 2614.000000)">
                <g id="Group-29">
                    <g id="Group-20" transform="translate(33.000000, 24.000000)">
                        <g id="Group-18" fill="#FFE7B7">
                            <g id="Group-17">
                                <circle id="Oval" cx="28.5" cy="28.9253731" r="28.5"></circle>
                            </g>
                        </g>
                        <path d="M22.0880588,30.3631592 C18.2333618,26.300914 16.5960448,17.8573955 17.4402553,11.0217515 C17.5716654,9.95273957 18.8943946,9.55931638 19.5713558,10.3917382 C23.6085668,15.3574492 25.3016336,22.7989784 23.9835502,30.0287159 C23.8342205,30.8504141 22.6601574,30.9656931 22.0880588,30.3631592" id="Fill-1" fill="#FFAA00" transform="translate(20.823538, 20.343332) rotate(-30.000000) translate(-20.823538, -20.343332) "></path>
                        <path d="M28.8983708,25.366904 C27.6652945,21.7278305 28.9605735,15.9817575 31.323055,11.9483767 C31.692612,11.3181212 32.5994293,11.449133 32.7835979,12.1627018 C33.8831215,16.4193112 32.8927575,21.5548441 30.1363258,25.6982493 C29.823483,26.1695099 29.0819297,25.9074864 28.8983708,25.366904" id="Fill-3" fill="#FFAA00" transform="translate(30.823538, 18.743332) rotate(-30.000000) translate(-30.823538, -18.743332) "></path>
                        <g id="Group-7" transform="translate(34.369948, 36.143332) rotate(-30.000000) translate(-34.369948, -36.143332) translate(24.369948, 28.143332)">
                            <mask id="mask-2" fill="white">
                                <use xlink:href="#path-1"></use>
                            </mask>
                            <g id="Clip-6"></g>
                            <path d="M14.7742719,8.64290624 C13.8804579,8.64290624 13.1562162,7.90472306 13.1562162,6.99370342 C13.1562162,6.08268378 13.8804579,5.3445006 14.7742719,5.3445006 C15.6680858,5.3445006 16.3923275,6.08268378 16.3923275,6.99370342 C16.3923275,7.90472306 15.6680858,8.64290624 14.7742719,8.64290624 M8.94927157,9.63242793 C7.51955761,9.63242793 6.36038255,8.45093903 6.36038255,6.99370342 C6.36038255,5.53646781 7.51955761,4.35497891 8.94927157,4.35497891 C10.3789855,4.35497891 11.5381606,5.53646781 11.5381606,6.99370342 C11.5381606,8.45093903 10.3789855,9.63242793 8.94927157,9.63242793 M18.9003138,6.58140272 C17.6155776,1.77892412 12.6339079,-0.813622712 7.87488263,0.303877117 C3.89834909,1.23798559 0.8654656,4.25602675 0.0396100021,10.259125 C-0.10730945,11.3344052 0.161935008,13.0264873 0.692657258,13.9678523 C1.6680212,15.6948975 3.23947683,16.2886105 5.34294917,15.8723517 C6.6089159,15.6210132 7.77974096,15.0094888 8.80105768,14.2053375 L10.3725133,12.9657967 C11.7154995,11.9063488 13.4727079,11.5626549 15.1056497,12.0376253 C17.0395498,12.600993 19.0304054,11.231495 19.174736,9.18648348 C19.2316916,8.37309666 19.1410804,7.48186745 18.9003138,6.58140272" id="Fill-5" fill="#FFAA00" mask="url(#mask-2)"></path>
                        </g>
                    </g>
                </g>
            </g>
        </g>
    </g>
</svg>