<?xml version="1.0" encoding="UTF-8"?>
<svg width="23px" height="22px" viewBox="0 0 23 22" version="1.1" xmlns="http://www.w3.org/2000/svg" xmlns:xlink="http://www.w3.org/1999/xlink">
    <!-- Generator: Sketch 63.1 (92452) - https://sketch.com -->
    <title>Group 10</title>
    <desc>Created with Sketch.</desc>
    <g id="Symbols" stroke="none" stroke-width="1" fill="none" fill-rule="evenodd">
        <g id="Navigation/Widescreen" transform="translate(-1402.000000, -60.000000)">
            <g id="Group-7" transform="translate(1207.000000, 47.000000)">
                <g id="Group-6" transform="translate(155.500000, 13.000000)">
                    <g id="Group-10" transform="translate(40.000000, 0.000000)">
                        <circle id="Oval" fill="#DCDCDC" cx="11" cy="11" r="11"></circle>
                        <path d="M11.7301101,12.7492833 L11.7301101,12.5923233 C11.739343,11.692111 12.0624961,11.272012 12.7918988,10.8334471 C13.6551793,10.3210186 14.218389,9.64239709 14.218389,8.55752597 C14.218389,6.94176047 12.9165436,6 11.0838039,6 C9.40802423,6 8.04154826,6.87712985 8,8.72371899 L9.88352093,8.72371899 C9.91121977,7.97123392 10.469813,7.56960078 11.0745709,7.56960078 C11.6977948,7.56960078 12.2009903,7.98508333 12.2009903,8.62677306 C12.2009903,9.23153101 11.7624254,9.63316415 11.1945992,9.99324903 C10.4190318,10.4825952 9.98508333,10.9765578 9.98046686,12.5923233 L9.98046686,12.7492833 L11.7301101,12.7492833 Z M10.889912,15.703826 C11.4808205,15.703826 11.993249,15.2098634 11.9978655,14.5958725 C11.993249,13.9911145 11.4808205,13.4971519 10.889912,13.4971519 C10.2805376,13.4971519 9.77734205,13.9911145 9.78195853,14.5958725 C9.77734205,15.2098634 10.2805376,15.703826 10.889912,15.703826 Z" id="?" fill="#222222" fill-rule="nonzero" opacity="0.646577381"></path>
                    </g>
                </g>
            </g>
        </g>
    </g>
</svg>