<?xml version="1.0" encoding="UTF-8"?>
<svg width="42px" height="42px" viewBox="0 0 42 42" version="1.1" xmlns="http://www.w3.org/2000/svg" xmlns:xlink="http://www.w3.org/1999/xlink">
    <!-- Generator: Sketch 63.1 (92452) - https://sketch.com -->
    <title>Group 9</title>
    <desc>Created with Sketch.</desc>
    <defs>
        <polygon id="path-1" points="0 0 18.999715 0 18.999715 19.0192174 0 19.0192174"></polygon>
    </defs>
    <g id="Symbols" stroke="none" stroke-width="1" fill="none" fill-rule="evenodd">
        <g id="Navigation/Footer-Widescreen" transform="translate(-332.000000, -384.000000)">
            <g id="Group-9" transform="translate(332.000000, 384.000000)">
                <circle id="Oval" fill="#FFE7E7" cx="21" cy="21" r="21"></circle>
                <g id="Group-8-Copy" transform="translate(12.000000, 10.000000)">
                    <g id="Group-3" transform="translate(0.000000, 0.990296)">
                        <mask id="mask-2" fill="white">
                            <use xlink:href="#path-1"></use>
                        </mask>
                        <g id="Clip-2"></g>
                        <path d="M17.591815,13.4645994 C17.591815,15.7497812 15.736465,17.6098793 13.453615,17.6098793 L5.549615,17.6098793 C3.265815,17.6098793 1.411415,15.7497812 1.411415,13.4645994 L1.411415,5.55157487 C1.411415,3.26734402 3.265815,1.40914791 5.549615,1.40914791 L13.453615,1.40914791 C15.736465,1.40914791 17.591815,3.26734402 17.591815,5.55157487 L17.591815,13.4645994 Z M13.453615,-0.000190194076 L5.549615,-0.000190194076 C2.489665,-0.000190194076 -0.000285,2.48945026 -0.000285,5.55157487 L-0.000285,13.4645994 C-0.000285,16.527675 2.489665,19.0192174 5.549615,19.0192174 L13.453615,19.0192174 C16.513565,19.0192174 18.999715,16.527675 18.999715,13.4645994 L18.999715,5.55157487 C18.999715,2.48945026 16.513565,-0.000190194076 13.453615,-0.000190194076 L13.453615,-0.000190194076 Z" id="Fill-1" fill="#0B0B23" mask="url(#mask-2)"></path>
                    </g>
                    <path d="M9.49858364,13.8541978 C7.65164994,13.8541978 6.14936388,12.3505267 6.14936388,10.5018902 C6.14936388,8.65325371 7.65164994,7.1495826 9.49858364,7.1495826 C11.3455173,7.1495826 12.8506361,8.65325371 12.8506361,10.5018902 C12.8506361,12.3505267 11.3455173,13.8541978 9.49858364,13.8541978 M9.49858364,5.74514811 C6.88020574,5.74514811 4.75,7.88015316 4.75,10.5018902 C4.75,13.1226822 6.88020574,15.2548519 9.49858364,15.2548519 C12.1197943,15.2548519 14.25,13.1226822 14.25,10.5018902 C14.25,7.88015316 12.1197943,5.74514811 9.49858364,5.74514811" id="Fill-4" fill="#0B0B23"></path>
                    <path d="M15.2,5.74514811 C15.2,6.26905338 14.7733707,6.69611849 14.25,6.69611849 C13.7266293,6.69611849 13.3,6.26905338 13.3,5.74514811 C13.3,5.22124284 13.7266293,4.79417773 14.25,4.79417773 C14.7733707,4.79417773 15.2,5.22124284 15.2,5.74514811" id="Fill-6" fill="#0B0B23"></path>
                </g>
            </g>
        </g>
    </g>
</svg>