<?xml version="1.0" encoding="UTF-8"?>
<svg width="47px" height="25px" viewBox="0 0 47 25" version="1.1" xmlns="http://www.w3.org/2000/svg" xmlns:xlink="http://www.w3.org/1999/xlink">
    <!-- Generator: Sketch 63.1 (92452) - https://sketch.com -->
    <title>Group 4</title>
    <desc>Created with Sketch.</desc>
    <g id="Symbols" stroke="none" stroke-width="1" fill="none" fill-rule="evenodd">
        <g id="Navigation/Footer-Widescreen" transform="translate(-1361.000000, -485.000000)">
            <g id="Group-21" transform="translate(1301.000000, 485.000000)">
                <g id="Group-4" transform="translate(60.000000, 0.000000)">
                    <rect id="Rectangle" stroke="#71767F" opacity="0.311802455" x="0.5" y="0.5" width="46" height="24" rx="4"></rect>
                    <g id="mastercard-(1)" transform="translate(13.000000, 6.000000)" fill-rule="nonzero">
                        <path d="M13.7347808,6.92359589 C13.7347808,10.7182945 10.6607329,13.7930205 6.86739041,13.7930205 C3.07404795,13.7930205 0,10.7176164 0,6.92359589 C0,3.12957534 3.07480137,0.0541712329 6.86739041,0.0541712329 C10.6599795,0.0541712329 13.7347808,3.12957534 13.7347808,6.92359589 Z" id="Path" fill="#E2574C"></path>
                        <path d="M15.1149041,0.0541712329 C13.5747534,0.0541712329 12.1568836,0.567328767 11.0110753,1.4239726 L11.0165753,1.42465068 C11.2419247,1.64239041 11.4905548,1.79563699 11.682226,2.04630137 L10.2533562,2.06897945 C10.0294384,2.29500685 9.82541096,2.54092466 9.63306164,2.7964863 L12.1527397,2.7964863 C12.344411,3.02658219 12.5216164,3.2265411 12.6823973,3.48067123 L9.17626027,3.48067123 C9.04780137,3.70187671 8.9289863,3.92926027 8.82523973,4.16553425 L13.0815616,4.16553425 C13.1928425,4.40113014 13.2924452,4.57908904 13.3769795,4.8284726 L8.57314384,4.8284726 C8.49689726,5.0655 8.43165068,5.30795205 8.38215068,5.55522603 L13.5782192,5.55522603 C13.6290753,5.79293151 13.6681781,6.01270548 13.695,6.23669863 L8.27908219,6.23669863 C8.25640411,6.46272603 8.24472603,6.69214384 8.24472603,6.92367123 L13.7341027,6.92367123 C13.7341027,7.16687671 13.7169247,7.39215068 13.6922123,7.61064384 L8.27908219,7.61064384 C8.30243836,7.8435274 8.33679452,8.07226712 8.38215068,8.29761644 L13.5699315,8.29761644 C13.516363,8.52017808 13.4545068,8.74409589 13.3769041,8.97630137 L8.55732192,8.97630137 C8.63010274,9.21121918 8.71878082,9.43928082 8.81559589,9.66184247 L13.0815616,9.66184247 C12.9634247,9.91190411 12.8294658,10.1117877 12.6817945,10.3460274 L9.16397945,10.3460274 C9.30276027,10.5864452 9.45593151,10.815863 9.62213699,11.0357123 L12.1528151,11.0734589 C11.9371096,11.332411 11.6603014,11.4883699 11.4081301,11.7150753 C11.4218425,11.7260753 11.0048973,11.7137192 10.1839658,11.7006849 C11.4328425,12.9894178 13.1783767,13.7930959 15.1148288,13.7930959 C18.9088493,13.7930959 21.9842534,10.7176164 21.9842534,6.92367123 C21.9842534,3.12972603 18.9095274,0.0541712329 15.1149041,0.0541712329 Z" id="Path" fill="#F4B459"></path>
                    </g>
                </g>
            </g>
        </g>
    </g>
</svg>