<?xml version="1.0" encoding="UTF-8"?>
<svg width="194px" height="204px" viewBox="0 0 194 204" version="1.1" xmlns="http://www.w3.org/2000/svg" xmlns:xlink="http://www.w3.org/1999/xlink">
    <!-- Generator: Sketch 63.1 (92452) - https://sketch.com -->
    <title>Group 3</title>
    <desc>Created with Sketch.</desc>
    <defs>
        <rect id="path-1" x="0" y="0" width="236" height="258"></rect>
        <polygon id="path-3" points="0 0 333 0 333 333 0 333"></polygon>
    </defs>
    <g id="Design_Desktop" stroke="none" stroke-width="1" fill="none" fill-rule="evenodd">
        <g id="Hell-Bunny_Home" transform="translate(0.000000, -853.000000)">
            <g id="Group-3" transform="translate(0.000000, 853.000000)">
                <mask id="mask-2" fill="white">
                    <use xlink:href="#path-1"></use>
                </mask>
                <g id="Mask"></g>
                <g mask="url(#mask-2)">
                    <g transform="translate(-139.000000, -129.000000)">
                        <mask id="mask-4" fill="white">
                            <use xlink:href="#path-3"></use>
                        </mask>
                        <g id="Clip-2" stroke="none" fill="none"></g>
                        <path d="M256.746292,243.728429 C238.004162,265.381454 221.420665,292.13888 214.952761,303.006573 L201.757118,263.438929 C201.964987,262.936725 202.002963,262.378274 201.871046,261.851965 C208.558811,246.57693 217.619073,232.467008 228.710048,220.048509 C240.26473,207.157938 261.681166,192.308772 266.124352,189.283496 L307.300274,197.628116 C297.366565,205.285722 273.383755,224.504062 256.746292,243.728429 L256.746292,243.728429 Z M73.5802978,276.624796 L101.042905,245.317402 C101.468635,245.224997 101.866383,245.022106 102.192177,244.72681 C118.855623,242.838524 135.710948,243.646067 152.120555,247.11931 C168.138411,250.548358 190.110495,260.819433 196.452478,263.87886 C196.482459,263.939124 196.534426,263.983318 196.568405,264.041574 L209.881973,303.962769 C197.819612,298.972871 170.037208,288.121248 145.7346,283.364373 C117.570437,277.852182 86.0583949,276.813624 73.5802978,276.624796 L73.5802978,276.624796 Z M55.6476552,206.573373 C46.3475453,179.402131 31.5609102,151.557936 25.4447838,140.521502 L66.8265751,148.90429 C69.5288637,152.39963 82.1588646,169.522775 90.0698543,194.012248 C95.1826162,209.843725 97.311268,234.485868 97.8169478,241.221427 L70.0005649,272.934601 C68.293646,260.06211 63.7485246,230.245258 55.6476552,206.573373 L55.6476552,206.573373 Z M77.0900749,89.3931236 C95.5064111,68.117756 111.826075,41.9308338 118.525832,30.7156155 L131.907357,70.8437189 C131.915352,70.9883537 131.933341,71.1309796 131.963322,71.2715967 C125.277556,86.5466317 116.217294,100.658562 105.126318,113.075052 C93.567639,125.969641 72.1412092,140.818807 67.7080169,143.838057 L26.5320952,135.497454 C36.4618063,127.839848 60.4486145,108.623517 77.0900749,89.3931236 L77.0900749,89.3931236 Z M259.560509,56.484704 L231.558244,88.4108127 C214.92278,90.2910642 198.093439,89.475485 181.715811,86.0002338 C165.699955,82.5731941 143.729869,72.3061368 137.383889,69.2467104 C137.168025,68.8248591 136.836235,68.4733164 136.428494,68.2322585 L123.308803,28.8916108 C135.003396,33.7529449 163.357438,44.915934 188.103766,49.7591888 C215.802223,55.1789737 246.67467,56.2697607 259.560509,56.484704 L259.560509,56.484704 Z M199.100801,255.471966 L184.536025,211.794285 C184.673938,211.400557 184.715911,210.980715 184.653951,210.568907 C186.34488,207.151912 190.510242,199.297442 196.020752,192.796914 C201.573235,186.250184 210.373661,180.292036 213.073951,178.534323 L259.152768,187.871298 C250.979944,193.632582 234.77021,205.61115 224.910455,216.609416 C214.505045,228.258539 205.814549,241.343965 199.100801,255.471966 L199.100801,255.471966 Z M136.806254,204.54246 C137.17602,204.462107 137.521801,204.297385 137.817614,204.064362 C141.315399,203.827322 150.555546,203.435603 159.258035,205.044664 C166.949164,206.470923 175.5757,210.504625 179.193409,212.312559 C179.267362,212.465229 179.357305,212.613882 179.461239,212.748472 L194.271859,257.16138 C184.977746,252.840417 167.193009,245.092415 153.185881,242.097271 C137.853591,238.836963 122.12955,237.826528 106.507444,239.086056 L136.806254,204.54246 Z M119.751056,159.627349 C121.46597,162.160465 126.778605,170.360451 129.89663,179.18317 C132.568938,186.744353 133.38642,196.501171 133.616275,200.408317 L102.509975,235.871951 C101.592557,225.663149 99.3779591,206.185671 94.9347732,192.427292 C90.0858442,177.499782 83.1262519,163.349684 74.269861,150.412911 L119.751056,159.627349 Z M149.166426,122.592822 C147.463505,126.029905 143.314133,133.838172 137.815615,140.326647 C132.261133,146.875386 123.456709,152.831525 120.760417,154.58723 L74.6816003,145.252263 C82.8544241,139.492988 99.0661566,127.512411 108.923913,116.516154 C119.161429,105.05586 127.739996,92.2034568 134.405775,78.3366017 L149.166426,122.592822 Z M195.89683,129.069243 C192.311101,129.306284 183.182882,129.669879 174.578332,128.078897 C166.885204,126.654647 158.260666,122.620945 154.642958,120.813011 C154.419099,120.326877 154.047335,119.927123 153.58163,119.667986 L138.904925,75.6588503 C148.001164,79.9074956 166.313566,87.9588291 180.650486,91.0262908 C191.785434,93.3846405 203.138244,94.5718506 214.519036,94.5658242 C219.341981,94.5658242 223.393415,94.3488721 226.573401,94.0937524 L195.89683,129.069243 Z M214.085311,173.496213 C212.372395,170.963096 207.053764,162.74704 203.939736,153.940391 C201.147505,146.045745 200.379991,135.734494 200.190111,132.215049 C200.206101,132.114608 200.216094,132.012159 200.222091,131.909709 L231.260433,96.5224107 C232.135878,106.516269 234.354473,126.616479 238.899595,140.696269 C243.750522,155.625788 250.708116,169.775886 259.566506,182.71065 L214.085311,173.496213 Z M182.077582,204.42394 L170.572869,169.924538 L206.066389,177.11409 C201.980977,180.050978 196.306571,184.536664 192.129216,189.466298 C188.297643,194.108671 184.929776,199.118658 182.077582,204.42394 L182.077582,204.42394 Z M165.729936,171.56775 L177.088742,205.627221 C172.547618,203.594299 166.193642,201.105376 160.18145,199.992492 C154.147272,198.957952 148.02315,198.536101 141.905025,198.730956 L165.729936,171.56775 Z M162.665876,163.078494 L127.769977,156.007463 C131.853391,153.072583 137.529796,148.586897 141.70715,143.659272 C145.388819,139.203719 148.63876,134.404658 151.411005,129.326372 L162.665876,163.078494 Z M167.510808,161.433274 L156.094039,127.199036 C160.665144,129.282178 167.340916,131.963947 173.652918,133.133078 C178.801657,134.031018 184.020352,134.464923 189.247042,134.430773 C189.932607,134.430773 190.584195,134.422737 191.209799,134.412693 L167.510808,161.433274 Z M207.101734,172.079998 L171.342381,164.836208 L195.449114,137.349582 C195.936805,142.37363 196.964154,149.557155 199.120788,155.661946 C201.23345,161.387071 203.905758,166.887209 207.101734,172.079998 L207.101734,172.079998 Z M134.71358,177.463624 C132.602916,171.738499 129.930609,166.236353 126.734633,161.041555 L161.896364,168.164816 L138.315299,195.050806 C137.801624,190.076978 136.770277,183.273119 134.71358,177.463624 L134.71358,177.463624 Z M308.393582,192.606077 L267.01179,184.219271 C264.315498,180.733976 251.677502,163.61083 243.764514,139.111313 C238.503845,122.821827 236.401177,97.195364 235.977445,91.3577454 C235.997433,91.2814104 235.98544,91.199049 235.999432,91.1186963 L263.741861,59.4898923 C265.374827,71.9606205 269.941934,102.450426 278.19071,126.550189 C287.488821,153.725448 302.277455,181.571652 308.393582,192.606077 L308.393582,192.606077 Z M330.949296,197.174124 L315.019385,193.947966 C311.609545,187.979774 293.658914,155.949207 283.021651,124.876845 C273.593622,97.3219194 269.046502,61.1110066 268.253004,54.347324 L282.234149,38.407371 C283.169557,37.3426987 283.067621,35.7175667 282.008292,34.7794498 C280.946965,33.8413328 279.333986,33.9417736 278.398579,35.006446 L264.023683,51.3983825 C255.952794,51.360215 220.395314,50.8399317 189.081147,44.7130437 C161.672506,39.3495056 129.608813,26.0290484 121.715812,22.6502203 C121.527931,22.3127392 121.266097,22.0254786 120.948298,21.8085265 L114.260533,1.75451882 C113.810818,0.408612271 112.361736,-0.316570216 111.024583,0.133404513 C109.685431,0.585388057 108.963888,2.04177948 109.411604,3.38567721 L116.317231,24.0965676 C116.31923,24.1809379 116.325226,24.2673169 116.337218,24.353696 C112.009959,31.7923407 93.9394036,62.0973352 73.232518,86.0203219 C54.1106286,108.115286 25.0770167,130.222304 19.8443308,134.141503 L3.0529654,130.738569 C1.66784265,130.46537 0.32269458,131.371346 0.048868005,132.763456 C-0.222959836,134.14753 0.66647685,135.493436 2.03960719,135.778688 L18.8189802,139.177604 C22.2348168,145.157849 40.1794518,177.18239 50.8127173,208.246716 C59.9549272,234.959948 64.5060448,269.79884 65.4974169,278.067125 L51.0005983,294.593653 C50.0691882,295.660334 50.1691249,297.283457 51.228454,298.221574 C52.2877831,299.1617 53.904759,299.05925 54.8361691,297.994578 L68.7873333,282.092792 C69.0971371,282.026501 69.3929498,281.903963 69.6567827,281.727188 C77.4018774,281.761338 113.207201,282.233409 144.757219,288.410518 C172.081913,293.755976 204.02768,307.012152 212.040606,310.4412 L218.978212,331.246505 C219.427927,332.592411 220.877009,333.317594 222.216161,332.86561 C223.553314,332.415636 224.274857,330.959244 223.825142,329.615346 L217.285284,310.001269 C217.293279,309.98319 217.30727,309.973146 217.313266,309.957075 C217.471166,309.581427 217.535126,309.175646 217.499148,308.771874 C221.826408,301.331221 239.896963,271.026226 260.605847,247.101231 C279.717743,225.01631 308.747358,202.911302 313.990037,198.984067 L329.935938,202.214243 C330.103832,202.248392 330.275723,202.262454 330.445615,202.264463 C331.85872,202.262454 333,201.111403 333,199.69117 C333,198.46981 332.14254,197.417191 330.949296,197.174124 L330.949296,197.174124 Z" id="Fill-1" stroke="none" fill="#FFE7D3" fill-rule="evenodd" mask="url(#mask-4)"></path>
                    </g>
                </g>
            </g>
        </g>
    </g>
</svg>