<?xml version="1.0" encoding="UTF-8"?>
<svg width="400px" height="425px" viewBox="0 0 400 425" version="1.1" xmlns="http://www.w3.org/2000/svg" xmlns:xlink="http://www.w3.org/1999/xlink">
    <!-- Generator: Sketch 63.1 (92452) - https://sketch.com -->
    <title>Group 8</title>
    <desc>Created with Sketch.</desc>
    <defs>
        <rect id="path-1" x="0" y="0.167953757" width="407" height="424"></rect>
        <polygon id="path-3" points="0 0.644735528 274.868044 0.644735528 274.868044 223.999475 0 223.999475"></polygon>
    </defs>
    <g id="Design_Desktop" stroke="none" stroke-width="1" fill="none" fill-rule="evenodd">
        <g id="Group-8" transform="translate(-7.000000, 0.000000)">
            <mask id="mask-2" fill="white">
                <use xlink:href="#path-1"></use>
            </mask>
            <g id="Mask"></g>
            <g opacity="0.758021763" mask="url(#mask-2)">
                <g transform="translate(231.000000, 248.500000) rotate(27.000000) translate(-231.000000, -248.500000) translate(93.000000, -22.000000)">
                    <path d="M105.436589,282.492081 C51.8991319,226.440909 29.1586176,109.936593 40.8837632,15.6178501 C42.7089037,0.867541778 61.0801421,-4.56094161 70.4823815,6.92487844 C126.554756,75.4421415 150.069573,178.120934 131.762859,277.877408 C129.688836,289.215263 113.382403,290.805891 105.436589,282.492081" id="Fill-1" fill="#FFE3CB"></path>
                    <path d="M190.389941,275.146087 C171.380014,222.328977 191.348898,138.931112 227.770489,80.3910722 C233.467826,71.2436141 247.447925,73.1451039 250.287192,83.5017618 C267.23818,145.281719 251.970069,219.818272 209.47508,279.955194 C204.652086,286.795019 193.219806,282.99204 190.389941,275.146087" id="Fill-3" fill="#FFE3CB"></path>
                    <g id="Group-7" stroke-width="1" fill="none" transform="translate(0.158136, 316.072231)">
                        <mask id="mask-4" fill="white">
                            <use xlink:href="#path-3"></use>
                        </mask>
                        <g id="Clip-6"></g>
                        <path d="M211.610665,121.000687 C198.808642,121.000687 188.435389,110.666123 188.435389,97.9118479 C188.435389,85.157573 198.808642,74.8230085 211.610665,74.8230085 C224.412687,74.8230085 234.785941,85.157573 234.785941,97.9118479 C234.785941,110.666123 224.412687,121.000687 211.610665,121.000687 M128.179671,134.853991 C107.701997,134.853991 91.0992293,118.313146 91.0992293,97.9118479 C91.0992293,77.5105494 107.701997,60.9697048 128.179671,60.9697048 C148.657345,60.9697048 165.260113,77.5105494 165.260113,97.9118479 C165.260113,118.313146 148.657345,134.853991 128.179671,134.853991 M270.707619,92.139638 C252.30645,24.9049376 180.95441,-11.390718 112.791288,4.25427963 C55.8357292,17.3317983 12.3959917,59.5843744 0.567330759,143.62775 C-1.53698431,158.681673 2.31938163,182.370823 9.92087219,195.549932 C23.8909286,219.728565 46.3987567,228.040547 76.5266157,222.212924 C94.6589517,218.694185 111.428581,210.132843 126.056816,198.874725 L148.564644,181.521153 C167.800123,166.688883 192.968473,161.877169 216.356961,168.526754 C244.056051,176.413902 272.570911,157.24093 274.638146,128.610769 C275.453915,117.223353 274.1561,104.746144 270.707619,92.139638" id="Fill-5" fill="#FFE3CB" mask="url(#mask-4)"></path>
                    </g>
                </g>
            </g>
        </g>
    </g>
</svg>