<?xml version="1.0" encoding="UTF-8"?>
<svg width="47px" height="25px" viewBox="0 0 47 25" version="1.1" xmlns="http://www.w3.org/2000/svg" xmlns:xlink="http://www.w3.org/1999/xlink">
    <!-- Generator: Sketch 63.1 (92452) - https://sketch.com -->
    <title>Group 5</title>
    <desc>Created with Sketch.</desc>
    <g id="Symbols" stroke="none" stroke-width="1" fill="none" fill-rule="evenodd">
        <g id="Navigation/Footer-Widescreen" transform="translate(-1422.000000, -485.000000)">
            <g id="Group-21" transform="translate(1301.000000, 485.000000)">
                <g id="Group-5" transform="translate(121.000000, 0.000000)">
                    <rect id="Rectangle" stroke="#71767F" opacity="0.311802455" x="0.5" y="0.5" width="46" height="24" rx="4"></rect>
                    <g id="paypal" transform="translate(8.000000, 8.000000)" fill-rule="nonzero">
                        <path d="M23.9634921,2.10357143 L22.2904762,2.10357143 C22.1920635,2.10357143 22.0936508,2.20198413 22.0444444,2.30039683 L21.3555556,6.63055556 C21.3555556,6.72896825 21.4047619,6.7781746 21.5031746,6.7781746 L22.3888889,6.7781746 C22.4873016,6.7781746 22.5365079,6.72896825 22.5365079,6.63055556 L22.7333333,5.40039683 C22.7333333,5.30198413 22.831746,5.20357143 22.9793651,5.20357143 L23.5206349,5.20357143 C24.652381,5.20357143 25.2920635,4.66230159 25.4396825,3.5797619 C25.5380952,3.13690476 25.4396825,2.74325397 25.2428571,2.49722222 C24.947619,2.25119048 24.5047619,2.10357143 23.9634921,2.10357143 M24.1603175,3.72738095 C24.0619048,4.31785714 23.6190476,4.31785714 23.1761905,4.31785714 L22.8809524,4.31785714 L23.0777778,3.18611111 C23.0777778,3.13690476 23.1269841,3.08769841 23.2253968,3.08769841 L23.3238095,3.08769841 C23.6190476,3.08769841 23.9142857,3.08769841 24.0619048,3.28452381 C24.1603175,3.33373016 24.1603175,3.48134921 24.1603175,3.72738095" id="Shape" fill="#139AD6"></path>
                        <g id="Group" transform="translate(9.287698, 2.091270)" fill="#263B80">
                            <path d="M2.6202381,0.0123015873 L0.947222222,0.0123015873 C0.848809524,0.0123015873 0.750396825,0.110714286 0.701190476,0.209126984 L0.0123015873,4.53928571 C0.0123015873,4.63769841 0.0615079365,4.68690476 0.159920635,4.68690476 L0.947222222,4.68690476 C1.04563492,4.68690476 1.14404762,4.58849206 1.19325397,4.49007937 L1.39007937,3.30912698 C1.39007937,3.21071429 1.48849206,3.11230159 1.63611111,3.11230159 L2.17738095,3.11230159 C3.30912698,3.11230159 3.94880952,2.57103175 4.09642857,1.48849206 C4.19484127,1.04563492 4.09642857,0.651984127 3.89960317,0.405952381 C3.60436508,0.159920635 3.21071429,0.0123015873 2.6202381,0.0123015873 M2.81706349,1.63611111 C2.71865079,2.2265873 2.27579365,2.2265873 1.83293651,2.2265873 L1.58690476,2.2265873 L1.78373016,1.09484127 C1.78373016,1.04563492 1.83293651,0.996428571 1.93134921,0.996428571 L2.0297619,0.996428571 C2.325,0.996428571 2.6202381,0.996428571 2.76785714,1.19325397 C2.81706349,1.24246032 2.86626984,1.39007937 2.81706349,1.63611111" id="Shape"></path>
                            <path d="M7.68849206,1.58690476 L6.90119048,1.58690476 C6.85198413,1.58690476 6.75357143,1.63611111 6.75357143,1.68531746 L6.70436508,1.93134921 L6.65515873,1.83293651 C6.45833333,1.58690476 6.11388889,1.48849206 5.7202381,1.48849206 C4.83452381,1.48849206 4.04722222,2.17738095 3.89960317,3.11230159 C3.80119048,3.60436508 3.94880952,4.04722222 4.19484127,4.34246032 C4.44087302,4.63769841 4.78531746,4.73611111 5.2281746,4.73611111 C5.96626984,4.73611111 6.35992063,4.29325397 6.35992063,4.29325397 L6.31071429,4.53928571 C6.31071429,4.63769841 6.35992063,4.68690476 6.45833333,4.68690476 L7.19642857,4.68690476 C7.29484127,4.68690476 7.39325397,4.58849206 7.44246032,4.49007937 L7.88531746,1.73452381 C7.83611111,1.68531746 7.73769841,1.58690476 7.68849206,1.58690476 M6.55674603,3.16150794 C6.45833333,3.60436508 6.11388889,3.94880952 5.6218254,3.94880952 C5.37579365,3.94880952 5.17896825,3.85039683 5.08055556,3.75198413 C4.98214286,3.60436508 4.93293651,3.40753968 4.93293651,3.16150794 C4.98214286,2.71865079 5.37579365,2.37420635 5.81865079,2.37420635 C6.06468254,2.37420635 6.21230159,2.47261905 6.35992063,2.57103175 C6.50753968,2.71865079 6.55674603,2.96468254 6.55674603,3.16150794" id="Shape"></path>
                        </g>
                        <path d="M28.9825397,3.6781746 L28.1952381,3.6781746 C28.1460317,3.6781746 28.047619,3.72738095 28.047619,3.7765873 L27.9984127,4.02261905 L27.9492063,3.92420635 C27.752381,3.6781746 27.4079365,3.5797619 27.0142857,3.5797619 C26.1285714,3.5797619 25.3412698,4.26865079 25.1936508,5.20357143 C25.0952381,5.69563492 25.2428571,6.13849206 25.4888889,6.43373016 C25.7349206,6.72896825 26.0793651,6.82738095 26.5222222,6.82738095 C27.2603175,6.82738095 27.6539683,6.38452381 27.6539683,6.38452381 L27.6047619,6.63055556 C27.6047619,6.72896825 27.6539683,6.7781746 27.752381,6.7781746 L28.4904762,6.7781746 C28.5888889,6.7781746 28.6873016,6.6797619 28.7365079,6.58134921 L29.1793651,3.82579365 C29.1301587,3.7765873 29.0809524,3.6781746 28.9825397,3.6781746 M27.8507937,5.25277778 C27.752381,5.69563492 27.4079365,6.04007937 26.915873,6.04007937 C26.6698413,6.04007937 26.4730159,5.94166667 26.3746032,5.84325397 C26.2761905,5.69563492 26.2269841,5.49880952 26.2269841,5.25277778 C26.2761905,4.80992063 26.6698413,4.46547619 27.1126984,4.46547619 C27.3587302,4.46547619 27.5063492,4.56388889 27.6539683,4.66230159 C27.8507937,4.80992063 27.9,5.05595238 27.8507937,5.25277778" id="Shape" fill="#139AD6"></path>
                        <path d="M21.2571429,3.6781746 L20.4206349,3.6781746 C20.3222222,3.6781746 20.2730159,3.72738095 20.2238095,3.7765873 L19.1412698,5.44960317 L18.6492063,3.875 C18.6,3.7765873 18.5507937,3.72738095 18.4031746,3.72738095 L17.615873,3.72738095 C17.5174603,3.72738095 17.468254,3.82579365 17.468254,3.92420635 L18.3539683,6.53214286 L17.5174603,7.71309524 C17.468254,7.81150794 17.5174603,7.95912698 17.615873,7.95912698 L18.4031746,7.95912698 C18.5015873,7.95912698 18.5507937,7.90992063 18.6,7.86071429 L21.3063492,3.9734127 C21.4539683,3.82579365 21.3555556,3.6781746 21.2571429,3.6781746" id="Path" fill="#263B80"></path>
                        <path d="M29.9174603,2.25119048 L29.2285714,6.6797619 C29.2285714,6.7781746 29.2777778,6.82738095 29.3761905,6.82738095 L30.0650794,6.82738095 C30.1634921,6.82738095 30.2619048,6.72896825 30.3111111,6.63055556 L31,2.30039683 C31,2.20198413 30.9507937,2.15277778 30.852381,2.15277778 L30.0650794,2.15277778 C30.015873,2.10357143 29.9666667,2.15277778 29.9174603,2.25119048" id="Path" fill="#139AD6"></path>
                        <path d="M5.65873016,0.627380952 C5.31428571,0.233730159 4.67460317,0.0369047619 3.78888889,0.0369047619 L1.32857143,0.0369047619 C1.18095238,0.0369047619 1.03333333,0.18452381 0.984126984,0.332142857 L0,6.7781746 C0,6.92579365 0.0984126984,7.02420635 0.196825397,7.02420635 L1.72222222,7.02420635 L2.11587302,4.61309524 L2.11587302,4.71150794 C2.16507937,4.56388889 2.31269841,4.41626984 2.46031746,4.41626984 L3.1984127,4.41626984 C4.62539683,4.41626984 5.70793651,3.82579365 6.05238095,2.20198413 C6.05238095,2.15277778 6.05238095,2.10357143 6.05238095,2.05436508 C6.0031746,2.05436508 6.0031746,2.05436508 6.05238095,2.05436508 C6.1015873,1.41468254 6.0031746,1.02103175 5.65873016,0.627380952" id="Path" fill="#263B80"></path>
                        <path d="M6.0031746,2.05436508 L6.0031746,2.05436508 C6.0031746,2.10357143 6.0031746,2.15277778 6.0031746,2.20198413 C5.65873016,3.875 4.57619048,4.41626984 3.14920635,4.41626984 L2.41111111,4.41626984 C2.26349206,4.41626984 2.11587302,4.56388889 2.06666667,4.71150794 L1.57460317,7.71309524 C1.57460317,7.81150794 1.62380952,7.90992063 1.77142857,7.90992063 L3.05079365,7.90992063 C3.1984127,7.90992063 3.34603175,7.81150794 3.34603175,7.66388889 L3.34603175,7.61468254 L3.59206349,6.08928571 L3.59206349,5.99087302 C3.59206349,5.84325397 3.73968254,5.74484127 3.88730159,5.74484127 L4.08412698,5.74484127 C5.31428571,5.74484127 6.2984127,5.25277778 6.54444444,3.7765873 C6.64285714,3.18611111 6.59365079,2.64484127 6.2984127,2.30039683 C6.24920635,2.20198413 6.15079365,2.10357143 6.0031746,2.05436508" id="Path" fill="#139AD6"></path>
                        <path d="M5.65873016,1.90674603 C5.60952381,1.90674603 5.56031746,1.85753968 5.51111111,1.85753968 C5.46190476,1.85753968 5.41269841,1.85753968 5.36349206,1.80833333 C5.16666667,1.75912698 4.96984127,1.75912698 4.72380952,1.75912698 L2.8047619,1.75912698 C2.75555556,1.75912698 2.70634921,1.75912698 2.65714286,1.80833333 C2.55873016,1.85753968 2.50952381,1.95595238 2.50952381,2.05436508 L2.11587302,4.61309524 L2.11587302,4.71150794 C2.16507937,4.56388889 2.31269841,4.41626984 2.46031746,4.41626984 L3.1984127,4.41626984 C4.62539683,4.41626984 5.70793651,3.82579365 6.05238095,2.20198413 C6.05238095,2.15277778 6.05238095,2.10357143 6.1015873,2.05436508 C6.0031746,2.00515873 5.95396825,1.95595238 5.85555556,1.95595238 C5.70793651,1.90674603 5.70793651,1.90674603 5.65873016,1.90674603" id="Path" fill="#232C65"></path>
                    </g>
                </g>
            </g>
        </g>
    </g>
</svg>