<?xml version="1.0" encoding="UTF-8"?>
<svg width="376px" height="431px" viewBox="0 0 376 431" version="1.1" xmlns="http://www.w3.org/2000/svg" xmlns:xlink="http://www.w3.org/1999/xlink">
    <!-- Generator: Sketch 63.1 (92452) - https://sketch.com -->
    <title>Group 8</title>
    <desc>Created with Sketch.</desc>
    <defs>
        <rect id="path-1" x="0" y="0.370590477" width="447" height="432"></rect>
    </defs>
    <g id="Design_Desktop" stroke="none" stroke-width="1" fill="none" fill-rule="evenodd">
        <g id="Hell-Bunny_Home" transform="translate(-78.000000, -2668.000000)">
            <g id="Group-8" transform="translate(27.000000, 2667.629410)">
                <mask id="mask-2" fill="white">
                    <use xlink:href="#path-1"></use>
                </mask>
                <g id="Mask"></g>
                <g opacity="0.758021763" mask="url(#mask-2)">
                    <g transform="translate(223.517037, 196.000000) rotate(-15.000000) translate(-223.517037, -196.000000) translate(72.017037, -102.000000)">
                        <path d="M116.539359,310.795339 C57.648156,249.08046 32.6335902,120.80393 45.5312504,16.9547217 C47.538905,0.713964058 67.7472672,-5.26304204 78.0897306,7.3833661 C139.769343,82.8239763 165.635641,195.877978 145.498256,305.714374 C143.216831,318.197866 125.279754,319.94922 116.539359,310.795339" id="Fill-1" stroke="#FFE3E3" stroke-width="12"></path>
                        <path d="M209.220893,303.187063 C188.155839,245.062971 210.283522,153.285416 250.642581,88.8633625 C256.955846,78.7967817 272.447308,80.8893303 275.593522,92.2866094 C294.377049,160.274122 277.458332,242.299994 230.36929,308.479382 C225.024892,316.006462 212.356689,311.821365 209.220893,303.187063" id="Fill-3" stroke="#FFE3E3" stroke-width="12"></path>
                        <g id="Group-7" stroke="none" stroke-width="1" fill-rule="evenodd" transform="translate(0.002100, 348.292986)">
                            <path d="M233.156478,133.424865 C219.050977,133.424865 207.621537,122.029162 207.621537,107.965297 C207.621537,93.9014309 219.050977,82.5057281 233.156478,82.5057281 C247.261979,82.5057281 258.691419,93.9014309 258.691419,107.965297 C258.691419,122.029162 247.261979,133.424865 233.156478,133.424865 M141.230692,148.700606 C118.668019,148.700606 100.374787,130.461371 100.374787,107.965297 C100.374787,85.4692218 118.668019,67.229987 141.230692,67.229987 C163.793366,67.229987 182.086597,85.4692218 182.086597,107.965297 C182.086597,130.461371 163.793366,148.700606 141.230692,148.700606 M298.270576,101.600404 C277.995834,27.462141 199.378859,-12.5603006 124.275492,4.69110299 C61.5208216,19.1114026 13.658129,65.7024129 0.625095345,158.375242 C-1.69347726,174.974881 2.55553685,201.096398 10.9309974,215.62872 C26.3234595,242.28998 51.1229938,251.455424 84.3184165,245.029429 C104.296954,241.149391 122.774037,231.708983 138.891691,219.294898 L163.691226,200.159486 C184.885226,183.804259 212.616172,178.498485 238.386034,185.830841 C268.905395,194.527829 300.323586,173.386204 302.601302,141.816339 C303.500132,129.25968 302.070176,115.501329 298.270576,101.600404" id="Fill-5" stroke="#FFE3E3" stroke-width="12"></path>
                        </g>
                    </g>
                </g>
            </g>
        </g>
    </g>
</svg>