<?xml version="1.0" encoding="UTF-8"?>
<svg width="41px" height="42px" viewBox="0 0 41 42" version="1.1" xmlns="http://www.w3.org/2000/svg" xmlns:xlink="http://www.w3.org/1999/xlink">
    <!-- Generator: Sketch 63.1 (92452) - https://sketch.com -->
    <title>Group 10</title>
    <desc>Created with Sketch.</desc>
    <g id="Symbols" stroke="none" stroke-width="1" fill="none" fill-rule="evenodd">
        <g id="Navigation/Footer-Widescreen" transform="translate(-399.000000, -384.000000)">
            <g id="Group-10" transform="translate(399.000000, 384.000000)">
                <ellipse id="Oval" fill="#FFE7E7" cx="20.5" cy="21" rx="20.5" ry="21"></ellipse>
                <path d="M17.8165685,30.4981342 C18.7986556,29.1455654 18.9807918,27.5177225 19.4112957,26.0378653 C19.5582466,26.1620491 19.7248599,26.3131394 19.9038916,26.4487068 C20.6169137,26.9858018 21.4168644,27.1555197 22.3006393,27.0499634 C23.5114315,26.9040474 24.4966232,26.3555689 25.2893299,25.449027 C25.8916214,24.7598068 26.2900445,23.9577863 26.5446213,23.0822904 C26.8333487,22.0908896 26.977195,21.0767217 26.8592203,20.0501355 C26.6905373,18.5661388 25.9816547,17.3584512 24.7988038,16.4477698 C23.4182937,15.3859982 21.83495,15.056911 20.123283,15.1997224 C19.0056286,15.2928603 17.951101,15.5815877 16.991781,16.1642168 C15.4663897,17.0924908 14.482233,18.4233274 14.1490064,20.1857028 C13.9420333,21.2826599 14.0558685,22.3589196 14.5774406,23.3658434 C14.8692725,23.9288101 15.295637,24.3634535 15.8741266,24.6397625 C16.2601313,24.8250033 16.4381281,24.7422141 16.5426495,24.336547 C16.5933579,24.1337134 16.6399268,23.9288101 16.6937398,23.7259765 C16.7454831,23.530387 16.7268555,23.3554948 16.5871487,23.1961256 C16.0252169,22.5565789 15.8855101,21.7897438 15.947602,20.9753049 C16.0148683,20.099809 16.2963516,19.2957187 16.8313769,18.5909756 C17.5019695,17.7103053 18.3816049,17.1514781 19.4692482,16.9279473 C20.5434382,16.707521 21.6000356,16.7468458 22.6110988,17.2115003 C23.6563126,17.6916777 24.3082777,18.5195699 24.4666121,19.6413637 C24.6942824,21.258858 24.4376358,22.8152952 23.538338,24.2165026 C23.1709609,24.7898179 22.6762953,25.2306705 21.9819008,25.3776213 C21.3506331,25.5100841 20.7783526,25.3993535 20.3395698,24.8870952 C19.9359724,24.4183013 19.9649486,23.8863806 20.1284573,23.3337626 C20.361302,22.5441605 20.6055301,21.757663 20.7990499,20.9577122 C20.8808043,20.6172416 20.9108154,20.2364112 20.8487235,19.8959405 C20.6738312,18.9314462 19.6958837,18.5319883 18.841085,19.0452814 C18.2760487,19.3847172 17.9883561,19.9197424 17.8445099,20.5406615 C17.6768617,21.2671369 17.7596509,21.9760195 18.0069837,22.6755884 C18.0494132,22.7977025 18.0266461,22.955002 17.9956002,23.0874647 C17.6302928,24.6387276 17.2587762,26.1879207 16.8862247,27.7371139 C16.7320298,28.3776954 16.6554498,29.0275908 16.661659,29.6878347 C16.6626939,29.8078791 16.661659,29.9289583 16.661659,30.0552119 C12.9495977,28.5619014 9.94745381,24.0084947 11.3528007,18.9355857 C12.7788449,13.7923058 18.0980518,10.8998577 23.1678563,12.3921332 C28.3628794,13.9206291 31.1994448,19.3143463 29.5136495,24.397604 C27.8123311,29.5253609 22.4206836,31.8920975 17.8165685,30.4981342" id="Fill-1" fill="#0B0B23"></path>
            </g>
        </g>
    </g>
</svg>