<?xml version="1.0" encoding="UTF-8"?>
<svg width="57px" height="58px" viewBox="0 0 57 58" version="1.1" xmlns="http://www.w3.org/2000/svg" xmlns:xlink="http://www.w3.org/1999/xlink">
    <!-- Generator: Sketch 63.1 (92452) - https://sketch.com -->
    <title>Group 28</title>
    <desc>Created with Sketch.</desc>
    <defs>
        <polygon id="path-1" points="0 0.0460525377 19.1907871 0.0460525377 19.1907871 15.9999625 0 15.9999625"></polygon>
    </defs>
    <g id="Design_Desktop" stroke="none" stroke-width="1" fill="none" fill-rule="evenodd">
        <g id="Hell-Bunny_Home" transform="translate(-540.000000, -2913.000000)">
            <g id="Group-32" transform="translate(507.000000, 2614.000000)">
                <g id="Group-31" transform="translate(0.000000, 275.000000)">
                    <g id="Group-28" transform="translate(33.000000, 24.000000)">
                        <g id="Group-18" fill="#DAFFEF">
                            <g id="Group-17">
                                <circle id="Oval" cx="28.5" cy="28.9253731" r="28.5"></circle>
                            </g>
                        </g>
                        <g id="Group-8" opacity="0.758021763" transform="translate(28.633013, 26.000000) rotate(-30.000000) translate(-28.633013, -26.000000) translate(18.133013, 6.000000)">
                            <path d="M8.17785626,20.6131629 C4.32315934,16.5509177 2.68584231,8.10739925 3.53005279,1.27175516 C3.66146291,0.202743268 4.98419207,-0.190679918 5.66115331,0.641741883 C9.69836429,5.60745294 11.3914311,13.0489821 10.0733477,20.2787196 C9.92401804,21.1004178 8.74995487,21.2156968 8.17785626,20.6131629" id="Fill-1" fill="#44D496"></path>
                            <path d="M14.4484224,20.8312671 C13.2153461,17.1921935 14.510625,11.4461205 16.8731066,7.41273978 C17.2426635,6.78248429 18.1494808,6.91349603 18.3336495,7.62706481 C19.433173,11.8836743 18.442809,17.0192072 15.6863773,21.1626123 C15.3735345,21.633873 14.6319812,21.3718495 14.4484224,20.8312671" id="Fill-3" fill="#44D496"></path>
                            <g id="Group-7" transform="translate(0.744871, 23.049742)">
                                <mask id="mask-2" fill="white">
                                    <use xlink:href="#path-1"></use>
                                </mask>
                                <g id="Clip-6"></g>
                                <path d="M14.7742719,8.64290624 C13.8804579,8.64290624 13.1562162,7.90472306 13.1562162,6.99370342 C13.1562162,6.08268378 13.8804579,5.3445006 14.7742719,5.3445006 C15.6680858,5.3445006 16.3923275,6.08268378 16.3923275,6.99370342 C16.3923275,7.90472306 15.6680858,8.64290624 14.7742719,8.64290624 M8.94927157,9.63242793 C7.51955761,9.63242793 6.36038255,8.45093903 6.36038255,6.99370342 C6.36038255,5.53646781 7.51955761,4.35497891 8.94927157,4.35497891 C10.3789855,4.35497891 11.5381606,5.53646781 11.5381606,6.99370342 C11.5381606,8.45093903 10.3789855,9.63242793 8.94927157,9.63242793 M18.9003138,6.58140272 C17.6155776,1.77892412 12.6339079,-0.813622712 7.87488263,0.303877117 C3.89834909,1.23798559 0.8654656,4.25602675 0.0396100021,10.259125 C-0.10730945,11.3344052 0.161935008,13.0264873 0.692657258,13.9678523 C1.6680212,15.6948975 3.23947683,16.2886105 5.34294917,15.8723517 C6.6089159,15.6210132 7.77974096,15.0094888 8.80105768,14.2053375 L10.3725133,12.9657967 C11.7154995,11.9063488 13.4727079,11.5626549 15.1056497,12.0376253 C17.0395498,12.600993 19.0304054,11.231495 19.174736,9.18648348 C19.2316916,8.37309666 19.1410804,7.48186745 18.9003138,6.58140272" id="Fill-5" fill="#44D496" mask="url(#mask-2)"></path>
                            </g>
                        </g>
                    </g>
                </g>
            </g>
        </g>
    </g>
</svg>