<?xml version="1.0" encoding="UTF-8"?>
<svg width="42px" height="42px" viewBox="0 0 42 42" version="1.1" xmlns="http://www.w3.org/2000/svg" xmlns:xlink="http://www.w3.org/1999/xlink">
    <!-- Generator: Sketch 63.1 (92452) - https://sketch.com -->
    <title>Group 11</title>
    <desc>Created with Sketch.</desc>
    <g id="Symbols" stroke="none" stroke-width="1" fill="none" fill-rule="evenodd">
        <g id="Navigation/Footer-Widescreen" transform="translate(-465.000000, -384.000000)">
            <g id="Group-11" transform="translate(465.000000, 384.000000)">
                <circle id="Oval" fill="#FFE7E7" cx="21" cy="21" r="21"></circle>
                <path d="M29.69,15.6052731 C29.0688642,15.8779275 28.4082015,16.0578149 27.7184988,16.1457419 C28.4275616,15.7222402 28.9688371,15.0567376 29.2237448,14.254101 C28.5622755,14.6485626 27.8322392,14.9276704 27.0538028,15.082551 C26.4262136,14.4138217 25.5308101,14 24.5547395,14 C22.6606786,14 21.1352658,15.5375128 21.1352658,17.4227003 C21.1352658,17.6937414 21.1578526,17.9542958 21.2143195,18.2027501 C18.3700014,18.0640029 15.8531914,16.7007308 14.1616046,14.6235558 C13.8671701,15.1357912 13.6937361,15.7222402 13.6937361,16.3530561 C13.6937361,17.5380541 14.3035785,18.5883383 15.2135022,19.1965674 C14.66416,19.1860807 14.1244978,19.0263601 13.6679227,18.7754857 L13.6679227,18.8125926 C13.6679227,20.4759459 14.8537274,21.8569647 16.408987,22.1747927 C16.1306858,22.2514263 15.8265713,22.2877264 15.51197,22.2877264 C15.2925558,22.2877264 15.0715283,22.2748197 14.8642141,22.2288395 C15.3070759,23.5840449 16.5654809,24.5802823 18.0610469,24.6125491 C16.8970222,25.5232794 15.419203,26.0718149 13.8187699,26.0718149 C13.5388555,26.0718149 13.2694277,26.0589082 13,26.025028 C14.5157327,27.0027119 16.3121866,27.5601208 18.249001,27.5601208 C24.5450594,27.5601208 27.9879265,22.345 27.9879265,17.8236153 C27.9879265,17.672768 27.9822798,17.5267608 27.9750198,17.3815602 C28.6542359,16.8999783 29.2245515,16.2982025 29.69,15.6052731" id="Fill-1" fill="#0B0B23"></path>
            </g>
        </g>
    </g>
</svg>