<?xml version="1.0" encoding="UTF-8"?>
<svg width="47px" height="25px" viewBox="0 0 47 25" version="1.1" xmlns="http://www.w3.org/2000/svg" xmlns:xlink="http://www.w3.org/1999/xlink">
    <!-- Generator: Sketch 63.1 (92452) - https://sketch.com -->
    <title>Group 2</title>
    <desc>Created with Sketch.</desc>
    <g id="Symbols" stroke="none" stroke-width="1" fill="none" fill-rule="evenodd">
        <g id="Navigation/Footer-Widescreen" transform="translate(-1301.000000, -485.000000)">
            <g id="Group-21" transform="translate(1301.000000, 485.000000)">
                <g id="Group-2">
                    <g id="visa" transform="translate(7.000000, 8.000000)" fill-rule="nonzero">
                        <polygon id="Path" fill="#3C58BF" points="11.3666667 9.18928571 12.9412698 0.332142857 15.4015873 0.332142857 13.8761905 9.18928571"></polygon>
                        <polygon id="Path" fill="#293688" points="11.3666667 9.18928571 13.384127 0.332142857 15.4015873 0.332142857 13.8761905 9.18928571"></polygon>
                        <path d="M22.7825397,0.430555556 C22.2904762,0.233730159 21.5031746,0.0369047619 20.5190476,0.0369047619 C18.0587302,0.0369047619 16.2873016,1.26706349 16.2873016,3.03849206 C16.2873016,4.36706349 17.5174603,5.05595238 18.5015873,5.49880952 C19.4857143,5.94166667 19.7809524,6.23690476 19.7809524,6.63055556 C19.7809524,7.22103175 18.9936508,7.51626984 18.3047619,7.51626984 C17.3206349,7.51626984 16.7793651,7.36865079 15.9428571,7.02420635 L15.5984127,6.8765873 L15.2539683,8.89404762 C15.8444444,9.14007937 16.9269841,9.38611111 18.0587302,9.38611111 C20.6666667,9.38611111 22.3888889,8.15595238 22.3888889,6.28611111 C22.3888889,5.25277778 21.7492063,4.46547619 20.2730159,3.82579365 C19.3873016,3.38293651 18.8460317,3.13690476 18.8460317,2.69404762 C18.8460317,2.30039683 19.2888889,1.90674603 20.2730159,1.90674603 C21.1095238,1.90674603 21.7,2.05436508 22.1428571,2.25119048 L22.3888889,2.34960317 L22.7825397,0.430555556 L22.7825397,0.430555556 Z" id="Path" fill="#3C58BF"></path>
                        <path d="M22.7825397,0.430555556 C22.2904762,0.233730159 21.5031746,0.0369047619 20.5190476,0.0369047619 C18.0587302,0.0369047619 16.7301587,1.26706349 16.7301587,3.03849206 C16.7301587,4.36706349 17.5174603,5.05595238 18.5015873,5.49880952 C19.4857143,5.94166667 19.7809524,6.23690476 19.7809524,6.63055556 C19.7809524,7.22103175 18.9936508,7.51626984 18.3047619,7.51626984 C17.3206349,7.51626984 16.7793651,7.36865079 15.9428571,7.02420635 L15.5984127,6.8765873 L15.2539683,8.89404762 C15.8444444,9.14007937 16.9269841,9.38611111 18.0587302,9.38611111 C20.6666667,9.38611111 22.3888889,8.15595238 22.3888889,6.28611111 C22.3888889,5.25277778 21.7492063,4.46547619 20.2730159,3.82579365 C19.3873016,3.38293651 18.8460317,3.13690476 18.8460317,2.69404762 C18.8460317,2.30039683 19.2888889,1.90674603 20.2730159,1.90674603 C21.1095238,1.90674603 21.7,2.05436508 22.1428571,2.25119048 L22.3888889,2.34960317 L22.7825397,0.430555556 L22.7825397,0.430555556 Z" id="Path" fill="#293688"></path>
                        <path d="M27.0142857,0.332142857 C26.4238095,0.332142857 25.9809524,0.381349206 25.7349206,0.971825397 L22.0444444,9.18928571 L24.7015873,9.18928571 L25.1936508,7.71309524 L28.3428571,7.71309524 L28.6380952,9.18928571 L31,9.18928571 L28.9333333,0.332142857 L27.0142857,0.332142857 Z M25.8825397,6.23690476 C26.0301587,5.79404762 26.8666667,3.62896825 26.8666667,3.62896825 C26.8666667,3.62896825 27.0634921,3.08769841 27.2111111,2.74325397 L27.3587302,3.5797619 C27.3587302,3.5797619 27.8507937,5.79404762 27.9492063,6.28611111 L25.8825397,6.28611111 L25.8825397,6.23690476 Z" id="Shape" fill="#3C58BF"></path>
                        <path d="M27.6047619,0.332142857 C27.0142857,0.332142857 26.5714286,0.381349206 26.3253968,0.971825397 L22.0444444,9.18928571 L24.7015873,9.18928571 L25.1936508,7.71309524 L28.3428571,7.71309524 L28.6380952,9.18928571 L31,9.18928571 L28.9333333,0.332142857 L27.6047619,0.332142857 Z M25.8825397,6.23690476 C26.0793651,5.74484127 26.8666667,3.62896825 26.8666667,3.62896825 C26.8666667,3.62896825 27.0634921,3.08769841 27.2111111,2.74325397 L27.3587302,3.5797619 C27.3587302,3.5797619 27.8507937,5.79404762 27.9492063,6.28611111 L25.8825397,6.28611111 L25.8825397,6.23690476 Z" id="Shape" fill="#293688"></path>
                        <path d="M6.83968254,6.53214286 L6.59365079,5.25277778 C6.15079365,3.7765873 4.72380952,2.15277778 3.14920635,1.36547619 L5.36349206,9.23849206 L8.02063492,9.23849206 L12.0063492,0.381349206 L9.34920635,0.381349206 L6.83968254,6.53214286 Z" id="Path" fill="#3C58BF"></path>
                        <path d="M6.83968254,6.53214286 L6.59365079,5.25277778 C6.15079365,3.7765873 4.72380952,2.15277778 3.14920635,1.36547619 L5.36349206,9.23849206 L8.02063492,9.23849206 L12.0063492,0.381349206 L9.84126984,0.381349206 L6.83968254,6.53214286 Z" id="Path" fill="#293688"></path>
                        <path d="M0,0.332142857 L0.442857143,0.430555556 C3.59206349,1.16865079 5.75714286,3.03849206 6.59365079,5.25277778 L5.70793651,1.0702381 C5.56031746,0.479761905 5.11746032,0.332142857 4.57619048,0.332142857 L0,0.332142857 L0,0.332142857 Z" id="Path" fill="#FFBC00"></path>
                        <path d="M0,0.332142857 L0,0.332142857 C3.14920635,1.0702381 5.75714286,2.98928571 6.59365079,5.20357143 L5.75714286,1.70992063 C5.60952381,1.11944444 5.11746032,0.775 4.57619048,0.775 L0,0.332142857 Z" id="Path" fill="#F7981D"></path>
                        <path d="M0,0.332142857 L0,0.332142857 C3.14920635,1.0702381 5.75714286,2.98928571 6.59365079,5.20357143 L6.0031746,3.28452381 C5.85555556,2.69404762 5.65873016,2.10357143 4.96984127,1.85753968 L0,0.332142857 Z" id="Path" fill="#ED7C00"></path>
                        <g id="Group" transform="translate(3.198413, 1.291667)" fill="#051244">
                            <path d="M6.1015873,4.9452381 L4.42857143,3.27222222 L3.64126984,5.14206349 L3.44444444,3.91190476 C3.0015873,2.43571429 1.57460317,0.811904762 0,0.0246031746 L2.21428571,7.89761905 L4.87142857,7.89761905 L6.1015873,4.9452381 Z" id="Path"></path>
                            <polygon id="Path" points="10.6777778 7.89761905 8.56190476 5.73253968 8.16825397 7.89761905"></polygon>
                            <path d="M16.3365079,4.8468254 L16.3365079,4.8468254 C16.5333333,5.04365079 16.631746,5.19126984 16.5825397,5.38809524 C16.5825397,5.97857143 15.7952381,6.27380952 15.1063492,6.27380952 C14.1222222,6.27380952 13.5809524,6.12619048 12.7444444,5.78174603 L12.4,5.63412698 L12.0555556,7.6515873 C12.6460317,7.89761905 13.7285714,8.14365079 14.8603175,8.14365079 C16.4349206,8.14365079 17.7142857,7.70079365 18.452381,6.91349206 L16.3365079,4.8468254 Z" id="Path"></path>
                            <path d="M19.1904762,7.89761905 L21.5031746,7.89761905 L21.9952381,6.42142857 L25.1444444,6.42142857 L25.4396825,7.89761905 L27.8015873,7.89761905 L26.9650794,4.30555556 L24.0126984,1.4515873 L24.1603175,2.23888889 C24.1603175,2.23888889 24.652381,4.4531746 24.7507937,4.9452381 L22.684127,4.9452381 C22.8809524,4.4531746 23.668254,2.33730159 23.668254,2.33730159 C23.668254,2.33730159 23.8650794,1.79603175 24.0126984,1.4515873" id="Path"></path>
                        </g>
                    </g>
                    <rect id="Rectangle" stroke="#71767F" opacity="0.311802455" x="0.5" y="0.5" width="46" height="24" rx="4"></rect>
                </g>
            </g>
        </g>
    </g>
</svg>