<?xml version="1.0" encoding="UTF-8"?>
<svg width="47px" height="25px" viewBox="0 0 47 25" version="1.1" xmlns="http://www.w3.org/2000/svg" xmlns:xlink="http://www.w3.org/1999/xlink">
    <!-- Generator: Sketch 63.1 (92452) - https://sketch.com -->
    <title>iconfinder_cover_credit_card_visa_electron_2908235</title>
    <desc>Created with Sketch.</desc>
    <defs>
        <rect id="path-1" x="0" y="0" width="47" height="25" rx="4"></rect>
    </defs>
    <g id="Symbols" stroke="none" stroke-width="1" fill="none" fill-rule="evenodd">
        <g id="Navigation/Footer-Widescreen" transform="translate(-1544.000000, -485.000000)">
            <g id="Group-21" transform="translate(1301.000000, 485.000000)">
                <g id="iconfinder_cover_credit_card_visa_electron_2908235" transform="translate(243.000000, 0.000000)">
                    <g>
                        <mask id="mask-2" fill="white">
                            <use xlink:href="#path-1"></use>
                        </mask>
                        <g id="Mask" opacity="0.311802455"></g>
                        <g mask="url(#mask-2)">
                            <g transform="translate(0.000000, -2.000000)">
                                <path d="M46.9952021,27.8036333 C46.9952021,28.6694125 46.2977417,29.3752937 45.43255,29.3752937 L1.56745,29.3752937 C0.702258333,29.3752937 0.00479791667,28.6694125 0.00479791667,27.8036333 L0.00479791667,1.56235833 C0.00479791667,0.697166667 0.702258333,-0.00029375 1.56745,-0.00029375 L45.43255,-0.00029375 C46.2977417,-0.00029375 46.9952021,0.697166667 46.9952021,1.56235833 L46.9952021,27.8036333 L46.9952021,27.8036333 Z" id="Path" fill="#075FA0"></path>
                                <path d="M15.8271521,16.5377333 C19.3855417,15.0184583 24.3742,13.6326438 30.9875896,15.0184583 L31.0491792,13.3411458 C24.0828,12.5816063 19.0763208,14.8066646 15.8271521,16.3784229 L15.8271521,16.5377333 L15.8271521,16.5377333 Z" id="Path" fill="#FBAA28"></path>
                                <polygon id="Path" fill="#FFFFFF" points="9.40793125 17.7739313 12.7634375 17.7739313 12.7634375 18.7802208 10.6794771 18.7802208 10.6707625 19.7159125 12.7456167 19.7159125 12.7456167 20.6783354 10.6620479 20.6783354 10.6707625 21.6140271 12.7189833 21.6140271 12.7189833 22.6209042 9.4170375 22.6209042"></polygon>
                                <polygon id="Path" fill="#FFFFFF" points="13.6019958 17.3672833 14.8207646 17.3672833 14.8294792 22.6209042 13.6107104 22.6209042"></polygon>
                                <path d="M19.0234458,22.2234604 C18.608475,22.5763521 17.9728979,22.7530917 17.4165354,22.7530917 C16.136275,22.7530917 15.553475,21.8439354 15.553475,20.9340937 C15.553475,19.8662146 16.3480688,18.9654792 17.4518833,18.9654792 C18.7940271,18.9654792 19.2175167,19.9193833 19.2175167,21.1290458 L16.7718521,21.1290458 C16.7718521,21.4024292 16.9486896,21.8705687 17.6195167,21.8705687 C18.0433979,21.8705687 18.2817271,21.7378917 18.6170917,21.5169917 L19.0234458,22.2234604 L19.0234458,22.2234604 Z M18.1227104,20.4134708 C18.1227104,20.0514729 17.9461667,19.7251167 17.5400083,19.7251167 C17.1517688,19.7251167 16.8603688,20.0696854 16.7806646,20.4134708 L18.1227104,20.4134708 L18.1227104,20.4134708 Z" id="Shape" fill="#FFFFFF"></path>
                                <path d="M22.9171021,22.3826729 C22.5816396,22.5944667 22.0254729,22.7530917 21.6193146,22.7530917 C20.4977771,22.7530917 19.6944687,22.1088 19.6944687,20.9432 C19.6944687,19.7515542 20.4889646,18.9654792 21.698725,18.9654792 C22.1225083,18.9654792 22.6257021,19.0982542 22.8996729,19.2744063 L22.5023271,20.0695875 C22.3255875,19.9983042 22.1225083,19.9369104 21.9283396,19.9369104 C21.3192,19.9369104 20.9129437,20.2988104 20.9129437,20.8816104 C20.9129437,21.3849021 21.3102896,21.7823458 21.8224917,21.7823458 C22.0520083,21.7823458 22.2902396,21.6762042 22.4846042,21.5790708 L22.9171021,22.3826729 L22.9171021,22.3826729 Z" id="Path" fill="#FFFFFF"></path>
                                <path d="M23.3674208,19.08905 L23.9237833,19.08905 L23.9149708,17.8969146 L25.0893833,17.8969146 L25.0629458,19.08905 L26.0692354,19.08905 L26.0427979,19.9718667 L25.0449292,19.9718667 C25.0449292,20.4666396 25.0097771,20.9871646 25.0097771,21.2876708 C25.0097771,21.5965979 25.0893833,21.7378917 25.3629625,21.7378917 C25.5306938,21.7378917 25.6721833,21.6581875 25.8043708,21.5700625 L26.0782438,22.4002979 C25.7162458,22.6211 25.2834542,22.7531896 24.8685813,22.7531896 C23.8796229,22.7531896 23.8264542,22.126425 23.8264542,21.3143042 C23.8264542,20.8817083 23.8618021,20.4491125 23.8618021,19.9719646 L23.3407875,19.9719646 L23.3674208,19.08905 L23.3674208,19.08905 Z" id="Path" fill="#FFFFFF"></path>
                                <path d="M26.6960979,19.08905 L27.9148667,19.08905 L27.9148667,19.5922437 L27.9232875,19.5922437 C28.1086437,19.2918354 28.3474625,18.9920146 28.8240229,18.9920146 C28.9567,18.9920146 29.0980917,19.0095417 29.2216625,19.0360771 L29.0625479,20.2457396 C28.9387812,20.2101958 28.8066917,20.1751417 28.6299521,20.1751417 C28.2239896,20.1751417 27.9058583,20.5106042 27.9058583,20.5811042 L27.8793229,22.6209042 L26.6613375,22.6209042 L26.6960979,19.08905 L26.6960979,19.08905 Z" id="Path" fill="#FFFFFF"></path>
                                <path d="M31.4286063,18.9653813 C32.7355979,18.9653813 33.406425,19.7956167 33.406425,20.8549771 C33.406425,21.9234437 32.7355,22.7530917 31.4286063,22.7530917 C30.1310146,22.7530917 29.4509833,21.9234437 29.4509833,20.8549771 C29.4508854,19.7956167 30.1310146,18.9653813 31.4286063,18.9653813 L31.4286063,18.9653813 Z M31.4286063,21.8264083 C32.0115042,21.8264083 32.1882438,21.3226271 32.1882438,20.8549771 C32.1882438,20.3959438 32.0115042,19.8926521 31.4286063,19.8926521 C30.8459042,19.8926521 30.6781729,20.3960417 30.6781729,20.8549771 C30.6781729,21.322725 30.8458063,21.8264083 31.4286063,21.8264083 L31.4286063,21.8264083 Z" id="Shape" fill="#FFFFFF"></path>
                                <path d="M34.0689292,19.08905 L35.2876979,19.08905 L35.2876979,19.4776812 C35.5699917,19.2038083 36.0025875,18.9654792 36.4351833,18.9654792 C37.1856167,18.9654792 37.5916771,19.3805479 37.5916771,20.3428729 C37.5916771,21.0669667 37.5832562,21.8439354 37.5742479,22.6210021 L36.3554792,22.6210021 C36.3646833,21.9411667 36.3731042,21.2611354 36.3731042,20.5280333 C36.3731042,20.2367312 36.2940854,20.0159292 35.9320875,20.0159292 C35.7288125,20.0159292 35.4553312,20.1842479 35.2877958,20.3429708 L35.2877958,22.6211 L34.0423937,22.6211 L34.0689292,19.08905 L34.0689292,19.08905 Z" id="Path" fill="#FFFFFF"></path>
                                <polygon id="Path" fill="#FFFFFF" points="19.4473271 11.81345 20.9834437 6.73656875 22.3611312 6.73656875 20.8157125 11.81345"></polygon>
                                <path d="M18.8292771,6.73656875 L17.0101812,10.0917812 L16.9836458,10.0917812 C17.0101812,9.64156042 16.9486896,9.08539375 16.9395833,8.77587917 L16.8071021,6.73666667 L14.4940167,6.73666667 L14.4674813,6.86934375 C15.0590938,6.86934375 15.4119854,7.1692625 15.5092167,7.7785 L15.9596333,11.8135479 L17.39,11.8135479 L20.2684562,6.73656875 L18.8292771,6.73656875 L18.8292771,6.73656875 Z" id="Path" fill="#FFFFFF"></path>
                                <path d="M29.5214833,11.81345 L29.4865271,11.0539104 L27.7645646,11.0539104 L27.4200937,11.81345 L25.9280396,11.81345 L28.6299521,6.74547917 L30.4664771,6.74547917 L30.9255104,11.81345 L29.5214833,11.81345 L29.5214833,11.81345 Z M29.3629562,8.82043125 C29.3537521,8.44031875 29.3364208,7.92880208 29.3629562,7.61977708 L29.3447437,7.61977708 C29.2566187,7.87553542 28.9037271,8.63517292 28.7444167,9.00559167 L28.2323125,10.1181208 L29.4335542,10.1181208 L29.3629562,8.82043125 L29.3629562,8.82043125 Z" id="Shape" fill="#FFFFFF"></path>
                                <path d="M23.8088292,11.9547437 C22.8377896,11.9547437 22.1934,11.654825 21.733975,11.3719437 L22.3874708,10.374075 C22.7937271,10.6039833 23.1200833,10.8688479 23.8710063,10.8688479 C24.1093354,10.8688479 24.33895,10.8066708 24.4713333,10.5864563 C24.6656,10.2509938 24.4269771,10.0742542 23.8884354,9.77374792 L23.6235708,9.59759583 C22.8287813,9.04975208 22.4845062,8.5381375 22.8556104,7.63730417 C23.1025563,7.05450417 23.7295167,6.62190833 24.7715458,6.62190833 C25.4954437,6.62190833 26.1666625,6.93083542 26.5641063,7.2397625 L25.8044688,8.12306875 C25.4248458,7.81355417 25.1070083,7.65492917 24.7450104,7.65492917 C24.4535125,7.65492917 24.2330042,7.76107083 24.1534958,7.91979375 C24.0122021,8.20277292 24.1978521,8.39635417 24.6212438,8.65279792 L24.9392771,8.85607292 C25.9016021,9.46491875 26.1311188,10.1007896 25.8927896,10.7011167 C25.4776229,11.7248354 24.6566896,11.9547437 23.8088292,11.9547437 L23.8088292,11.9547437 Z" id="Path" fill="#FFFFFF"></path>
                            </g>
                        </g>
                    </g>
                </g>
            </g>
        </g>
    </g>
</svg>