<?xml version="1.0" encoding="UTF-8"?>
<svg width="20px" height="19px" viewBox="0 0 20 19" version="1.1" xmlns="http://www.w3.org/2000/svg" xmlns:xlink="http://www.w3.org/1999/xlink">
    <!-- Generator: Sketch 63.1 (92452) - https://sketch.com -->
    <title>Group 3</title>
    <desc>Created with Sketch.</desc>
    <defs>
        <polygon id="path-1" points="0 0 18.90975 0 18.90975 18.9996042 0 18.9996042"></polygon>
    </defs>
    <g id="Symbols" stroke="none" stroke-width="1" fill="none" fill-rule="evenodd">
        <g id="Navigation/Widescreen" transform="translate(-1633.000000, -61.000000)">
            <g id="Group-7" transform="translate(1207.000000, 47.000000)">
                <g id="Group-3" transform="translate(426.500000, 14.000000)">
                    <mask id="mask-2" fill="white">
                        <use xlink:href="#path-1"></use>
                    </mask>
                    <g id="Clip-2"></g>
                    <path d="M14.2373333,11.6600625 C14.17875,11.5626875 14.022,11.5041042 13.7860833,11.3853542 C13.5509583,11.2681875 12.3943333,10.6981875 12.1782083,10.6206042 C11.962875,10.5422292 11.806125,10.5018542 11.6485833,10.7385625 C11.4918333,10.9736875 11.0405833,11.5041042 10.903625,11.6600625 C10.7666667,11.8168125 10.6289167,11.8373958 10.3937917,11.7186458 C10.1586667,11.6014792 9.40025,11.3528958 8.50170833,10.5517292 C7.80266667,9.92789583 7.33004167,9.1568125 7.19308333,8.9216875 C7.056125,8.6865625 7.17883333,8.55910417 7.296,8.4419375 C7.40208333,8.33585417 7.531125,8.1664375 7.64908333,8.02947917 C7.768625,7.8933125 7.80741667,7.79514583 7.88658333,7.6368125 C7.96495833,7.48085417 7.92616667,7.3423125 7.86679167,7.22435417 C7.80741667,7.10797917 7.33716667,5.94977083 7.141625,5.4779375 C6.95004167,5.0195625 6.75608333,5.0813125 6.612,5.07497917 L6.16075,5.06627083 C6.004,5.06627083 5.74908333,5.12564583 5.53375,5.36077083 C5.31841667,5.5966875 4.71041667,6.16589583 4.71041667,7.3233125 C4.71041667,8.48152083 5.55354167,9.60014583 5.67070833,9.7576875 C5.78866667,9.91364583 7.32925,12.2910208 9.68920833,13.3091042 C10.2505,13.5521458 10.6890833,13.6962292 11.0302917,13.8054792 C11.5939583,13.9843958 12.1069583,13.9582708 12.5122917,13.8981042 C12.9643333,13.8308125 13.9040417,13.3288958 14.100375,12.7794792 C14.2967083,12.2300625 14.2967083,11.7582292 14.2373333,11.6600625 L14.2373333,11.6600625 Z M5.222625,15.9865208 C6.54945833,16.7742292 7.816125,17.2460625 9.49129167,17.2468542 C13.8042917,17.2468542 17.3177083,13.7358125 17.3200839,9.4204375 C17.3216667,5.09635417 13.824875,1.59085417 9.497625,1.58927083 C5.18145833,1.58927083 1.67041667,5.09952083 1.66883242,9.41489583 C1.66804167,11.1763542 2.18420833,12.4952708 3.05108333,13.8751458 L2.26020833,16.7623542 L5.222625,15.9865208 Z M0,18.9996042 L1.33554167,14.1205625 C0.511416667,12.6931875 0.078375,11.0742292 0.0791666667,9.41410417 C0.0815416667,4.22314583 4.30508333,-0.000395833333 9.49445833,-0.000395833333 C12.01275,0.000395833333 14.3766667,0.9820625 16.15475,2.7609375 C17.9320417,4.54060417 18.9105417,6.90689583 18.9097505,9.42202083 C18.907375,14.6129792 14.6838333,18.8365208 9.49445833,18.8365208 C7.91904167,18.8357292 6.36658333,18.4406875 4.99145833,17.6901875 L0,18.9996042 Z" id="Fill-1" fill="#636363" mask="url(#mask-2)"></path>
                </g>
            </g>
        </g>
    </g>
</svg>